<svg width="28" height="12" viewBox="0 0 28 12" fill="none" xmlns="http://www.w3.org/2000/svg">
<path d="M1 5.37451C0.585786 5.37451 0.25 5.7103 0.25 6.12451C0.25 6.53873 0.585786 6.87451 1 6.87451L1 5.37451ZM27.5303 6.65484C27.8232 6.36195 27.8232 5.88708 27.5303 5.59418L22.7574 0.821213C22.4645 0.528319 21.9896 0.528319 21.6967 0.821213C21.4038 1.11411 21.4038 1.58898 21.6967 1.88187L25.9393 6.12451L21.6967 10.3672C21.4038 10.66 21.4038 11.1349 21.6967 11.4278C21.9896 11.7207 22.4645 11.7207 22.7574 11.4278L27.5303 6.65484ZM1 6.87451L27 6.87451L27 5.37451L1 5.37451L1 6.87451Z" fill="#121820"/>
</svg>
