<svg width="25" height="25" viewBox="0 0 25 25" fill="none" xmlns="http://www.w3.org/2000/svg">
<g clip-path="url(#clip0_494_6501)">
<path d="M18.3483 16.162C19.8612 14.0975 20.5389 11.5378 20.2456 8.99509C19.9524 6.45237 18.7099 4.11414 16.7667 2.44819C14.8235 0.782236 12.3229 -0.0885728 9.76521 0.00997904C7.20753 0.108531 4.78138 1.16917 2.97213 2.97971C1.16289 4.79025 0.103982 7.21717 0.00726021 9.77491C-0.0894614 12.3327 0.783136 14.8326 2.45048 16.7746C4.11782 18.7166 6.45694 19.9575 8.99987 20.2489C11.5428 20.5403 14.102 19.8609 16.1655 18.3464H16.1639C16.2108 18.4089 16.2608 18.4683 16.317 18.5261L22.3327 24.5417C22.6256 24.8349 23.0231 24.9997 23.4376 24.9999C23.8521 25 24.2496 24.8355 24.5428 24.5425C24.836 24.2495 25.0008 23.8521 25.0009 23.4376C25.0011 23.0231 24.8366 22.6255 24.5436 22.3324L18.528 16.3167C18.4721 16.2602 18.412 16.2095 18.3483 16.162ZM18.7514 10.1558C18.7514 11.2843 18.5291 12.4018 18.0972 13.4445C17.6654 14.4871 17.0324 15.4345 16.2344 16.2325C15.4363 17.0305 14.489 17.6635 13.4463 18.0954C12.4037 18.5273 11.2862 18.7495 10.1577 18.7495C9.02911 18.7495 7.91161 18.5273 6.86897 18.0954C5.82633 17.6635 4.87896 17.0305 4.08095 16.2325C3.28295 15.4345 2.64994 14.4871 2.21806 13.4445C1.78619 12.4018 1.5639 11.2843 1.5639 10.1558C1.5639 7.87659 2.46931 5.69074 4.08095 4.0791C5.6926 2.46746 7.87845 1.56205 10.1577 1.56205C12.4369 1.56205 14.6227 2.46746 16.2344 4.0791C17.846 5.69074 18.7514 7.87659 18.7514 10.1558Z" fill="white"/>
</g>
<defs>
<clipPath id="clip0_494_6501">
<rect width="25" height="25" fill="white"/>
</clipPath>
</defs>
</svg>
