<svg width="591" height="295" viewBox="0 0 591 295" fill="none" xmlns="http://www.w3.org/2000/svg">
<path d="M277.406 200.623C272.735 202.117 268.306 203.541 263.854 204.887C261.643 205.555 259.35 204.093 258.93 201.239C257.27 196.271 256.627 193.253 255.557 188.468C253.38 178.725 253.283 168.974 254.588 159.119C257.181 139.544 263.862 121.206 271.275 103.077C272.773 99.4126 274.273 95.7488 275.756 92.1228C274.514 91.3322 274.042 92.1402 273.699 92.7201C265.617 106.41 257.759 120.211 251.07 134.668C245.926 145.786 241.357 157.055 238.728 169.06C236.034 181.361 235.094 193.66 238.44 205.991C239.037 208.19 238.265 209.044 236.088 208.93C234.791 208.863 233.489 208.879 232.191 208.83C229.768 208.739 228.73 207.5 228.178 205.069C224.382 188.363 226.768 172.189 231.886 156.166C237.917 137.283 247.271 119.967 256.847 102.753C266.68 85.0785 277.196 67.7665 285.887 49.485C292.955 34.6169 299.138 19.384 301.824 2.9808C301.991 1.95825 302.081 0.837438 302.906 0C304.149 0.589017 304.036 1.81617 304.211 2.81476C307.943 24.1006 316.617 43.5494 326.713 62.3978C334.992 77.8529 343.839 93.0023 352.299 108.362C356.946 116.799 361.438 125.327 365.375 134.128C367.015 137.794 365.375 139.962 361.472 144.841C358.908 148.046 356.369 150.51 355.063 151.891C344.382 163.181 334.153 170.386 321.046 178.756C307.321 187.521 292.936 194.917 277.406 200.623Z" fill="white"/>
<path fill-rule="evenodd" clip-rule="evenodd" d="M295.202 260.171C295.187 260 295.173 259.833 295.156 259.67C294.854 256.846 293.043 256.544 291.207 256.237C290.575 256.132 289.94 256.026 289.362 255.816C287.185 255.027 286.365 256.459 285.643 257.934C284.333 260.61 282.466 261.108 279.815 259.907C276.833 258.555 273.788 257.338 270.746 256.122C270.574 256.053 270.401 255.984 270.228 255.915C268.111 255.068 266.979 253.795 267.955 251.425C269.222 248.348 267.401 246.967 265.213 245.308C265.169 245.274 265.125 245.241 265.081 245.207C262.712 243.409 261.138 244.307 259.408 245.755C257.653 247.223 256.178 246.899 254.55 245.454C251.628 242.86 248.884 240.108 246.288 237.189C245.024 235.768 244.702 234.509 245.946 232.9C283.834 217.118 334.542 192.798 377.392 163.826C378.517 166.038 376.998 167.184 375.339 168.232C375.227 168.303 375.114 168.373 375.001 168.442C373.574 169.326 372.222 170.164 372.998 172.512C373.164 173.014 373.288 173.539 373.41 174.058C373.899 176.137 374.367 178.124 377.447 178.145C380.32 178.165 381.086 179.835 381.012 182.4C380.913 185.864 380.906 189.334 381.001 192.798C381.066 195.187 380.005 196.307 377.705 196.753C374.563 197.362 372.171 201.036 372.698 204.097C372.907 205.308 373.905 205.776 374.797 206.196C374.844 206.218 374.891 206.24 374.937 206.261C377.802 207.617 378.23 209.62 376.99 212.36C375.608 215.414 374.324 218.515 373.082 221.63C372.15 223.965 370.597 224.781 368.232 223.889C365.92 223.015 364.414 223.747 363.1 225.845C362.993 226.017 362.884 226.186 362.776 226.355C361.565 228.245 360.466 229.96 362.539 232.12C364.52 234.184 364.167 236.057 362.122 237.951C359.651 240.239 357.295 242.654 354.943 245.066L354.742 245.272C353.122 246.933 351.594 247.201 349.649 245.667C349.523 245.567 349.396 245.464 349.269 245.361C347.961 244.297 346.598 243.189 344.565 244.891C344.182 245.213 343.775 245.509 343.374 245.801C341.534 247.141 339.828 248.383 341.163 251.475C342.036 253.499 341.035 254.88 339.015 255.813C335.67 257.358 332.266 258.723 328.837 260.063C326.39 261.019 324.834 260.514 323.8 258.296C322.596 255.714 320.699 255.543 318.193 256.048C315.669 256.556 314.017 257.482 313.916 260.332C313.818 263.062 312.185 263.934 309.567 263.825C307.136 263.725 304.701 263.732 302.188 263.739C300.788 263.743 299.365 263.747 297.904 263.733C295.472 263.388 295.327 261.658 295.202 260.171ZM329.456 229.719C349.189 217.892 354.869 194.026 351.52 184.286C350.245 184.464 350.108 185.425 350.028 186.427C349.979 187.037 349.924 187.648 349.87 188.259V188.259V188.259L349.87 188.259C349.752 189.588 349.634 190.917 349.572 192.248C348.511 215.155 327.063 236.025 301.143 234.153C292.253 233.51 284.348 230.25 277.076 225.256C276.98 225.19 276.884 225.122 276.788 225.054C275.731 224.31 274.674 223.565 273.433 224.966C281.744 232.593 304.584 244.221 329.456 229.719ZM316.966 228.333C338.377 221.484 347.331 199.877 345.03 188.302C325.23 202.503 303.89 213.453 281.082 221.984C287.043 229.327 303.382 232.07 316.966 228.333Z" fill="#FEF446"/>
<path d="M218.337 233.531C225.71 235.038 233.175 235.039 240.648 234.158C250.227 232.466 271.188 228.377 278.404 225.55C301.212 217.02 322.552 206.07 342.352 191.869C351.951 183.728 372.186 166.21 376.33 161.27C384.928 151.537 392.374 140.995 395.965 128.343C400.048 113.955 396.235 100.767 379.815 95.1092C369.161 91.438 358.267 92.1277 347.349 93.0452C346.28 93.1351 344.654 93.2137 344.743 94.8699C344.841 96.6874 346.207 97.4893 347.915 97.4055C351.839 97.2126 355.681 97.7806 359.527 98.4231C372.049 100.515 378.928 110.702 376.241 123.116C374.481 131.242 370.449 138.299 365.474 144.732C356.975 155.722 346.997 165.187 335.879 173.645C325.07 181.868 313.756 189.165 301.803 195.484C287.898 202.835 273.3 208.533 257.989 212.239C246.414 215.039 234.689 216.26 222.916 213.649C215.507 212.007 209.416 208.381 206.864 200.595C204.198 192.464 207.196 185.156 210.677 178.187C215.003 169.526 221.009 161.97 227.851 155.095C228.827 154.114 230.23 153.238 230.131 151.558C229.045 150.913 228.553 151.669 228.05 152.159C224.639 155.485 221.146 158.736 217.884 162.203C209.154 171.483 201.481 181.514 196.924 193.576C194.042 201.205 192.368 209.015 195.478 216.992C199.52 227.359 208.276 231.476 218.337 233.531Z" fill="#FEF446"/>
<path d="M109.888 58.75H127.138V177H154.388V193.5H127.138V235H108.138V193.5H15.8877L10.8877 179.25L109.888 58.75ZM108.138 177V86.75L34.6377 177H108.138Z" fill="white"/>
<path d="M532.888 58.75H550.138V177H577.388V193.5H550.138V235H531.138V193.5H438.888L433.888 179.25L532.888 58.75ZM531.138 177V86.75L457.638 177H531.138Z" fill="white"/>
</svg>
