<svg width="33" height="42" viewBox="0 0 33 42" fill="none" xmlns="http://www.w3.org/2000/svg">
<g id="Group">
<path id="Vector" d="M15.199 0.0369606C9.95252 0.401691 5.22859 3.24587 2.45105 7.7173C1.63742 9.02541 0.999147 10.4773 0.595842 11.9397C-0.473794 15.822 -0.0950379 19.9287 1.66548 23.4953C2.33531 24.8525 2.97008 25.8099 4.03621 27.0724C4.15545 27.2162 6.67698 30.4953 9.63339 34.3565C12.8528 38.5614 15.0868 41.4476 15.2025 41.5529C15.8548 42.149 16.7526 42.149 17.4049 41.5529C17.5206 41.4476 19.7546 38.5614 22.974 34.3565C25.9304 30.4953 28.452 27.2162 28.5712 27.0724C29.6373 25.8099 30.2721 24.8525 30.9419 23.4953C32.9269 19.4728 33.1478 14.7208 31.5522 10.5369C30.3142 7.29996 28.1609 4.6136 25.2466 2.67423C22.3533 0.748882 18.7095 -0.205021 15.199 0.0369606ZM17.1594 7.94175C17.945 8.04345 18.5552 8.22581 19.2671 8.57301C21.2065 9.51288 22.5321 11.2243 22.9916 13.3916C23.0792 13.7984 23.0863 13.9001 23.0898 14.6752C23.0898 15.6116 23.0547 15.8851 22.8443 16.6216C22.2796 18.589 20.7892 20.2408 18.8814 21.0159C18.1764 21.3034 17.6013 21.4367 16.8052 21.5033C15.7741 21.591 14.7256 21.4227 13.7261 21.0159C11.8183 20.2408 10.3278 18.589 9.76315 16.6216C9.55273 15.8851 9.51766 15.6116 9.51766 14.6752C9.52116 13.9001 9.52818 13.7984 9.61585 13.3916C10.0086 11.5434 11.0397 10.0074 12.5687 9.00086C13.1895 8.59405 14.1013 8.20477 14.8027 8.05046C15.5357 7.88914 16.4405 7.84706 17.1594 7.94175Z" fill="#121820"/>
</g>
</svg>
