<svg width="61" height="74" viewBox="0 0 61 74" fill="none" xmlns="http://www.w3.org/2000/svg">
<path d="M49.5 11.5H17H16L27.5 0H61V10.5L49.5 22V11.5Z" fill="#121820"/>
<path d="M38.5 33.5H6H5L16.5 22H50V32.5L38.5 44V33.5Z" fill="#121820"/>
<path d="M3.01519 62L4.96523 52.0859L5.44045 52.6922H1.22902L1.65508 50.5292H11.6019L11.1759 52.6922H6.86611L7.58713 52.0859L5.63709 62H3.01519ZM16.4314 55.1503H21.9538L21.5441 57.215H16.0218L16.4314 55.1503ZM15.6776 59.8697H21.9374L21.495 62H12.6133L14.9075 50.5292H23.5761L23.1337 52.6595H17.1197L15.6776 59.8697ZM25.2943 62L27.5885 50.5292H29.7515L33.0125 58.6571L31.8655 58.6407L38.2072 50.5292H40.485L38.2072 62H35.7328L37.2567 54.3145H37.7483L32.7012 60.7874H31.5049L28.8175 54.2982L29.2927 54.3473L27.7687 62H25.2943ZM42.7118 62L45.0059 50.5292H55.4444L53.1502 62H50.5283L52.462 52.0859L52.9372 52.6922H46.5463L47.2837 52.0859L45.3337 62H42.7118Z" fill="#121820"/>
<path d="M2.20584 68.6824L3.26973 66.2655H3.78433L2.39087 69.3936H2.02082L0.633131 66.2655H1.14773L2.20584 68.6824ZM0.991617 66.2655V69.3936H0.45678V66.2655H0.991617ZM3.40272 69.3936V66.2655H3.94045V69.3936H3.40272ZM5.25239 67.8642V67.7977C5.25239 67.5722 5.28515 67.3631 5.35068 67.1704C5.41621 66.9757 5.51065 66.8071 5.634 66.6644C5.75735 66.5199 5.90672 66.4081 6.08211 66.3291C6.2575 66.2481 6.45408 66.2077 6.67187 66.2077C6.89159 66.2077 7.08914 66.2481 7.26453 66.3291C7.44185 66.4081 7.59218 66.5199 7.71553 66.6644C7.84081 66.8071 7.93621 66.9757 8.00174 67.1704C8.06727 67.3631 8.10003 67.5722 8.10003 67.7977V67.8642C8.10003 68.0897 8.06727 68.2988 8.00174 68.4916C7.93621 68.6843 7.84081 68.8529 7.71553 68.9975C7.59218 69.1401 7.44281 69.2519 7.26742 69.3328C7.09396 69.4119 6.89737 69.4514 6.67766 69.4514C6.45794 69.4514 6.26039 69.4119 6.085 69.3328C5.90961 69.2519 5.75928 69.1401 5.634 68.9975C5.51065 68.8529 5.41621 68.6843 5.35068 68.4916C5.28515 68.2988 5.25239 68.0897 5.25239 67.8642ZM5.78722 67.7977V67.8642C5.78722 68.0203 5.80553 68.1678 5.84215 68.3065C5.87877 68.4434 5.9337 68.5648 6.00694 68.6708C6.08211 68.7768 6.17558 68.8606 6.28737 68.9223C6.39916 68.9821 6.52925 69.0119 6.67766 69.0119C6.82413 69.0119 6.9523 68.9821 7.06216 68.9223C7.17395 68.8606 7.26646 68.7768 7.3397 68.6708C7.41294 68.5648 7.46787 68.4434 7.50448 68.3065C7.54303 68.1678 7.56231 68.0203 7.56231 67.8642V67.7977C7.56231 67.6435 7.54303 67.498 7.50448 67.3612C7.46787 67.2224 7.41197 67.1 7.33681 66.994C7.26357 66.8861 7.17106 66.8013 7.05927 66.7396C6.94941 66.6779 6.82028 66.6471 6.67187 66.6471C6.5254 66.6471 6.39626 66.6779 6.28448 66.7396C6.17462 66.8013 6.08211 66.8861 6.00694 66.994C5.9337 67.1 5.87877 67.2224 5.84215 67.3612C5.80553 67.498 5.78722 67.6435 5.78722 67.7977ZM10.5742 66.2655V69.3936H10.0364V66.2655H10.5742ZM11.6236 66.2655V66.6991H9.00723V66.2655H11.6236ZM12.4788 67.8642V67.7977C12.4788 67.5722 12.5115 67.3631 12.5771 67.1704C12.6426 66.9757 12.737 66.8071 12.8604 66.6644C12.9837 66.5199 13.1331 66.4081 13.3085 66.3291C13.4839 66.2481 13.6805 66.2077 13.8982 66.2077C14.118 66.2077 14.3155 66.2481 14.4909 66.3291C14.6682 66.4081 14.8185 66.5199 14.9419 66.6644C15.0672 66.8071 15.1626 66.9757 15.2281 67.1704C15.2936 67.3631 15.3264 67.5722 15.3264 67.7977V67.8642C15.3264 68.0897 15.2936 68.2988 15.2281 68.4916C15.1626 68.6843 15.0672 68.8529 14.9419 68.9975C14.8185 69.1401 14.6692 69.2519 14.4938 69.3328C14.3203 69.4119 14.1237 69.4514 13.904 69.4514C13.6843 69.4514 13.4868 69.4119 13.3114 69.3328C13.136 69.2519 12.9856 69.1401 12.8604 68.9975C12.737 68.8529 12.6426 68.6843 12.5771 68.4916C12.5115 68.2988 12.4788 68.0897 12.4788 67.8642ZM13.0136 67.7977V67.8642C13.0136 68.0203 13.0319 68.1678 13.0685 68.3065C13.1051 68.4434 13.1601 68.5648 13.2333 68.6708C13.3085 68.7768 13.402 68.8606 13.5137 68.9223C13.6255 68.9821 13.7556 69.0119 13.904 69.0119C14.0505 69.0119 14.1787 68.9821 14.2885 68.9223C14.4003 68.8606 14.4928 68.7768 14.5661 68.6708C14.6393 68.5648 14.6942 68.4434 14.7309 68.3065C14.7694 68.1678 14.7887 68.0203 14.7887 67.8642V67.7977C14.7887 67.6435 14.7694 67.498 14.7309 67.3612C14.6942 67.2224 14.6383 67.1 14.5632 66.994C14.4899 66.8861 14.3974 66.8013 14.2856 66.7396C14.1758 66.6779 14.0466 66.6471 13.8982 66.6471C13.7518 66.6471 13.6226 66.6779 13.5108 66.7396C13.401 66.8013 13.3085 66.8861 13.2333 66.994C13.1601 67.1 13.1051 67.2224 13.0685 67.3612C13.0319 67.498 13.0136 67.6435 13.0136 67.7977ZM17.124 66.8668V70.5962H16.5863V66.2655H17.0778L17.124 66.8668ZM19.2316 67.8035V67.8642C19.2316 68.0916 19.2046 68.3027 19.1506 68.4973C19.0967 68.6901 19.0176 68.8578 18.9136 69.0004C18.8114 69.143 18.6852 69.2538 18.5348 69.3328C18.3845 69.4119 18.212 69.4514 18.0174 69.4514C17.8188 69.4514 17.6435 69.4186 17.4912 69.3531C17.3389 69.2876 17.2098 69.1921 17.1038 69.0669C16.9978 68.9416 16.913 68.7913 16.8494 68.6159C16.7877 68.4405 16.7453 68.2429 16.7222 68.0232V67.6994C16.7453 67.4681 16.7887 67.261 16.8523 67.0779C16.9159 66.8948 16.9997 66.7386 17.1038 66.6095C17.2098 66.4785 17.338 66.3792 17.4883 66.3117C17.6386 66.2424 17.8121 66.2077 18.0087 66.2077C18.2053 66.2077 18.3797 66.2462 18.532 66.3233C18.6842 66.3985 18.8124 66.5064 18.9165 66.6471C19.0205 66.7878 19.0986 66.9564 19.1506 67.153C19.2046 67.3477 19.2316 67.5645 19.2316 67.8035ZM18.6939 67.8642V67.8035C18.6939 67.6474 18.6775 67.5009 18.6447 67.3641C18.6119 67.2253 18.5609 67.1039 18.4915 66.9998C18.424 66.8938 18.3373 66.8109 18.2313 66.7512C18.1253 66.6895 17.999 66.6587 17.8526 66.6587C17.7177 66.6587 17.6001 66.6818 17.4999 66.728C17.4016 66.7743 17.3177 66.8369 17.2483 66.916C17.179 66.9931 17.1221 67.0817 17.0778 67.1819C17.0354 67.2802 17.0036 67.3824 16.9824 67.4884V68.2372C17.0209 68.3721 17.0749 68.4993 17.1443 68.6188C17.2137 68.7363 17.3062 68.8317 17.4218 68.905C17.5374 68.9763 17.683 69.0119 17.8584 69.0119C18.0029 69.0119 18.1272 68.9821 18.2313 68.9223C18.3373 68.8606 18.424 68.7768 18.4915 68.6708C18.5609 68.5648 18.6119 68.4434 18.6447 68.3065C18.6775 68.1678 18.6939 68.0203 18.6939 67.8642ZM22.6279 67.6214V68.055H20.9743V67.6214H22.6279ZM21.087 66.2655V69.3936H20.5522V66.2655H21.087ZM23.0616 66.2655V69.3936H22.5239V66.2655H23.0616ZM24.9546 67.3409H25.8942C26.1467 67.3409 26.3597 67.3853 26.5331 67.4739C26.7066 67.5607 26.8376 67.6811 26.9263 67.8353C27.0169 67.9876 27.0622 68.161 27.0622 68.3557C27.0622 68.5002 27.0371 68.6361 26.987 68.7633C26.9369 68.8886 26.8617 68.9984 26.7615 69.0929C26.6632 69.1873 26.5408 69.2615 26.3943 69.3155C26.2498 69.3675 26.0831 69.3936 25.8942 69.3936H24.5643V66.2655H25.0992V68.9541H25.8942C26.0484 68.9541 26.1717 68.9262 26.2643 68.8703C26.3568 68.8144 26.4233 68.7421 26.4637 68.6535C26.5042 68.5648 26.5244 68.4723 26.5244 68.3759C26.5244 68.2815 26.5042 68.189 26.4637 68.0984C26.4233 68.0078 26.3568 67.9326 26.2643 67.8729C26.1717 67.8112 26.0484 67.7804 25.8942 67.7804H24.9546V67.3409ZM28.1752 66.2655V69.3936H27.6404V66.2655H28.1752ZM31.002 69.4514C30.7842 69.4514 30.5867 69.4148 30.4094 69.3415C30.234 69.2664 30.0827 69.1613 29.9555 69.0264C29.8302 68.8915 29.7338 68.7315 29.6664 68.5465C29.5989 68.3615 29.5652 68.1591 29.5652 67.9394V67.818C29.5652 67.5635 29.6028 67.3371 29.678 67.1386C29.7531 66.9381 29.8553 66.7685 29.9844 66.6297C30.1135 66.491 30.26 66.3859 30.4238 66.3146C30.5877 66.2433 30.7573 66.2077 30.9327 66.2077C31.1562 66.2077 31.349 66.2462 31.5109 66.3233C31.6747 66.4004 31.8086 66.5083 31.9127 66.6471C32.0168 66.7839 32.0939 66.9458 32.144 67.1328C32.1941 67.3178 32.2192 67.5202 32.2192 67.7399V67.9799H29.8832V67.5433H31.6843V67.5028C31.6766 67.3641 31.6477 67.2292 31.5976 67.0981C31.5494 66.967 31.4723 66.8591 31.3663 66.7743C31.2603 66.6895 31.1158 66.6471 30.9327 66.6471C30.8112 66.6471 30.6994 66.6731 30.5973 66.7252C30.4951 66.7753 30.4075 66.8504 30.3342 66.9507C30.261 67.0509 30.2041 67.1733 30.1636 67.3178C30.1232 67.4624 30.1029 67.6291 30.1029 67.818V67.9394C30.1029 68.0878 30.1232 68.2275 30.1636 68.3586C30.206 68.4877 30.2668 68.6014 30.3458 68.6997C30.4267 68.798 30.5241 68.8751 30.6378 68.931C30.7534 68.9869 30.8845 69.0148 31.0309 69.0148C31.2198 69.0148 31.3798 68.9763 31.5109 68.8992C31.6419 68.8221 31.7566 68.719 31.8549 68.5899L32.1787 68.8472C32.1112 68.9493 32.0255 69.0466 31.9214 69.1391C31.8173 69.2317 31.6891 69.3068 31.5369 69.3646C31.3865 69.4225 31.2083 69.4514 31.002 69.4514ZM37.2946 68.6824L38.3585 66.2655H38.8731L37.4796 69.3936H37.1096L35.7219 66.2655H36.2365L37.2946 68.6824ZM36.0804 66.2655V69.3936H35.5456V66.2655H36.0804ZM38.4915 69.3936V66.2655H39.0292V69.3936H38.4915ZM42.3273 68.8587V67.2484C42.3273 67.1251 42.3022 67.0181 42.2521 66.9275C42.2039 66.835 42.1307 66.7637 42.0324 66.7136C41.9341 66.6635 41.8127 66.6384 41.6681 66.6384C41.5332 66.6384 41.4147 66.6615 41.3125 66.7078C41.2123 66.7541 41.1333 66.8148 41.0755 66.8899C41.0196 66.9651 40.9916 67.0461 40.9916 67.1328H40.4568C40.4568 67.021 40.4857 66.9102 40.5435 66.8003C40.6014 66.6905 40.6842 66.5912 40.7922 66.5025C40.902 66.412 41.0331 66.3406 41.1853 66.2886C41.3395 66.2346 41.5111 66.2077 41.6999 66.2077C41.9274 66.2077 42.1278 66.2462 42.3013 66.3233C42.4767 66.4004 42.6135 66.517 42.7118 66.6731C42.812 66.8273 42.8621 67.021 42.8621 67.2542V68.7113C42.8621 68.8154 42.8708 68.9262 42.8881 69.0437C42.9074 69.1613 42.9354 69.2625 42.972 69.3473V69.3936H42.414C42.387 69.3319 42.3658 69.25 42.3504 69.1478C42.335 69.0437 42.3273 68.9474 42.3273 68.8587ZM42.4198 67.4971L42.4256 67.8729H41.885C41.7327 67.8729 41.5968 67.8854 41.4773 67.9105C41.3578 67.9336 41.2576 67.9693 41.1767 68.0174C41.0957 68.0656 41.034 68.1263 40.9916 68.1996C40.9492 68.2709 40.928 68.3547 40.928 68.4511C40.928 68.5494 40.9502 68.639 40.9945 68.7199C41.0389 68.8009 41.1054 68.8655 41.194 68.9136C41.2846 68.9599 41.3954 68.983 41.5265 68.983C41.6903 68.983 41.8348 68.9483 41.9601 68.879C42.0854 68.8096 42.1847 68.7248 42.2579 68.6245C42.3331 68.5243 42.3735 68.427 42.3793 68.3326L42.6077 68.5899C42.5942 68.6708 42.5576 68.7604 42.4979 68.8587C42.4381 68.957 42.3581 69.0515 42.2579 69.142C42.1596 69.2307 42.042 69.3049 41.9052 69.3646C41.7703 69.4225 41.618 69.4514 41.4484 69.4514C41.2364 69.4514 41.0504 69.4099 40.8905 69.3271C40.7324 69.2442 40.6091 69.1334 40.5204 68.9946C40.4337 68.8539 40.3903 68.6968 40.3903 68.5234C40.3903 68.3557 40.4231 68.2082 40.4886 68.081C40.5541 67.9519 40.6486 67.8449 40.7719 67.7601C40.8953 67.6734 41.0437 67.6079 41.2171 67.5635C41.3906 67.5192 41.5843 67.4971 41.7982 67.4971H42.4198ZM45.5473 69.0119C45.6745 69.0119 45.7921 68.9859 45.9 68.9339C46.0079 68.8818 46.0966 68.8105 46.166 68.7199C46.2354 68.6274 46.2749 68.5224 46.2845 68.4048H46.7933C46.7837 68.5899 46.721 68.7624 46.6054 68.9223C46.4917 69.0804 46.3423 69.2085 46.1573 69.3068C45.9723 69.4032 45.7689 69.4514 45.5473 69.4514C45.3122 69.4514 45.1069 69.4099 44.9315 69.3271C44.758 69.2442 44.6135 69.1305 44.4979 68.9859C44.3841 68.8414 44.2984 68.6756 44.2406 68.4887C44.1847 68.2998 44.1567 68.1003 44.1567 67.8902V67.7688C44.1567 67.5587 44.1847 67.3602 44.2406 67.1733C44.2984 66.9844 44.3841 66.8177 44.4979 66.6731C44.6135 66.5286 44.758 66.4149 44.9315 66.332C45.1069 66.2491 45.3122 66.2077 45.5473 66.2077C45.7921 66.2077 46.006 66.2578 46.1891 66.358C46.3722 66.4563 46.5158 66.5912 46.6199 66.7627C46.7259 66.9323 46.7837 67.1251 46.7933 67.3409H46.2845C46.2749 67.2118 46.2382 67.0952 46.1746 66.9911C46.113 66.887 46.0282 66.8042 45.9202 66.7425C45.8142 66.6789 45.6899 66.6471 45.5473 66.6471C45.3835 66.6471 45.2457 66.6799 45.1339 66.7454C45.024 66.809 44.9363 66.8957 44.8708 67.0056C44.8072 67.1135 44.7609 67.234 44.732 67.367C44.705 67.498 44.6916 67.632 44.6916 67.7688V67.8902C44.6916 68.0271 44.705 68.162 44.732 68.295C44.759 68.428 44.8043 68.5484 44.8679 68.6563C44.9334 68.7643 45.0211 68.851 45.131 68.9165C45.2428 68.9801 45.3815 69.0119 45.5473 69.0119ZM50.0769 66.2655V66.7078H48.5649V66.2655H50.0769ZM50.5482 66.2655V69.3936H50.0133V66.2655H50.5482ZM48.4348 66.2655H48.9726L48.8916 67.7746C48.8781 68.0078 48.856 68.214 48.8251 68.3933C48.7962 68.5706 48.7557 68.7228 48.7037 68.85C48.6536 68.9772 48.59 69.0813 48.5129 69.1623C48.4377 69.2413 48.3471 69.3001 48.2411 69.3386C48.1351 69.3752 48.0127 69.3936 47.874 69.3936H47.7063V68.9223L47.8219 68.9136C47.9048 68.9079 47.9752 68.8886 48.033 68.8558C48.0927 68.8231 48.1428 68.7749 48.1833 68.7113C48.2238 68.6457 48.2566 68.5619 48.2816 68.4598C48.3086 68.3576 48.3288 68.2362 48.3423 68.0955C48.3577 67.9548 48.3693 67.791 48.377 67.604L48.4348 66.2655ZM53.8462 68.8587V67.2484C53.8462 67.1251 53.8212 67.0181 53.7711 66.9275C53.7229 66.835 53.6496 66.7637 53.5513 66.7136C53.453 66.6635 53.3316 66.6384 53.1871 66.6384C53.0522 66.6384 52.9336 66.6615 52.8315 66.7078C52.7313 66.7541 52.6522 66.8148 52.5944 66.8899C52.5385 66.9651 52.5106 67.0461 52.5106 67.1328H51.9757C51.9757 67.021 52.0047 66.9102 52.0625 66.8003C52.1203 66.6905 52.2032 66.5912 52.3111 66.5025C52.421 66.412 52.552 66.3406 52.7043 66.2886C52.8585 66.2346 53.03 66.2077 53.2189 66.2077C53.4463 66.2077 53.6467 66.2462 53.8202 66.3233C53.9956 66.4004 54.1324 66.517 54.2307 66.6731C54.331 66.8273 54.3811 67.021 54.3811 67.2542V68.7113C54.3811 68.8154 54.3897 68.9262 54.4071 69.0437C54.4264 69.1613 54.4543 69.2625 54.4909 69.3473V69.3936H53.933C53.906 69.3319 53.8848 69.25 53.8694 69.1478C53.8539 69.0437 53.8462 68.9474 53.8462 68.8587ZM53.9387 67.4971L53.9445 67.8729H53.4039C53.2516 67.8729 53.1158 67.8854 52.9963 67.9105C52.8768 67.9336 52.7766 67.9693 52.6956 68.0174C52.6147 68.0656 52.553 68.1263 52.5106 68.1996C52.4682 68.2709 52.447 68.3547 52.447 68.4511C52.447 68.5494 52.4691 68.639 52.5135 68.7199C52.5578 68.8009 52.6243 68.8655 52.7129 68.9136C52.8035 68.9599 52.9144 68.983 53.0454 68.983C53.2092 68.983 53.3538 68.9483 53.4791 68.879C53.6043 68.8096 53.7036 68.7248 53.7768 68.6245C53.852 68.5243 53.8925 68.427 53.8983 68.3326L54.1267 68.5899C54.1132 68.6708 54.0765 68.7604 54.0168 68.8587C53.957 68.957 53.8771 69.0515 53.7768 69.142C53.6785 69.2307 53.561 69.3049 53.4241 69.3646C53.2892 69.4225 53.137 69.4514 52.9674 69.4514C52.7554 69.4514 52.5694 69.4099 52.4094 69.3271C52.2514 69.2442 52.128 69.1334 52.0393 68.9946C51.9526 68.8539 51.9092 68.6968 51.9092 68.5234C51.9092 68.3557 51.942 68.2082 52.0075 68.081C52.0731 67.9519 52.1675 67.8449 52.2909 67.7601C52.4142 67.6734 52.5626 67.6079 52.7361 67.5635C52.9095 67.5192 53.1032 67.4971 53.3172 67.4971H53.9387Z" fill="#121820"/>
</svg>
