<svg width="150" height="150" viewBox="0 0 150 150" fill="none" xmlns="http://www.w3.org/2000/svg">
<g id="&#208;&#186;&#209;&#128;&#209;&#131;&#208;&#179; &#209;&#129; &#208;&#187;&#208;&#190;&#208;&#179;&#208;&#190;">
<path id="[Linked] Ellipse 52" d="M150 75C150 116.421 116.421 150 75 150C33.5786 150 0 116.421 0 75C0 33.5786 33.5786 0 75 0C116.421 0 150 33.5786 150 75Z" fill="#121820"/>
<g id="Group 1">
<path id="Vector 1" d="M89.5 66.5H57H56L67.5 55H101V65.5L89.5 77V66.5Z" fill="white"/>
<path id="Vector 2" d="M78.5 88.5H46H45L56.5 77H90V87.5L78.5 99V88.5Z" fill="white"/>
</g>
<g id="Linked Path Group">
<path id="[Copy] &#209;&#130;&#208;&#181;&#208;&#188;&#208;&#191; &#208;&#188;&#208;&#190;&#209;&#130;&#208;&#190;&#209;&#128;&#208;&#189;&#209;&#139;&#208;&#181; &#208;&#188;&#208;&#176;&#209;&#129;&#208;&#187;&#208;&#176;" d="M137.595 85.8169L129.224 84.4844L129.399 83.3843L135.94 84.4255L131.82 80.9618L131.843 80.8183L136.823 78.8031L130.294 77.7638L130.471 76.6517L138.842 77.9841L138.642 79.2398L133.793 81.2022L137.795 84.5612L137.595 85.8169Z" fill="white"/>
<path id="[Copy] &#209;&#130;&#208;&#181;&#208;&#188;&#208;&#191; &#208;&#188;&#208;&#190;&#209;&#130;&#208;&#190;&#209;&#128;&#208;&#189;&#209;&#139;&#208;&#181; &#208;&#188;&#208;&#176;&#209;&#129;&#208;&#187;&#208;&#176;_2" d="M127.623 94.6678C127.12 93.5736 127.083 92.4521 127.514 91.3033C127.946 90.1544 128.711 89.3335 129.809 88.8405C130.908 88.3476 132.029 88.3152 133.17 88.7434C134.319 89.1745 135.141 89.9357 135.637 91.0271C136.14 92.1213 136.176 93.2428 135.745 94.3916C135.314 95.5405 134.549 96.3614 133.45 96.8544C132.356 97.3577 131.234 97.3939 130.086 96.9628C128.944 96.5346 128.123 95.7696 127.623 94.6678ZM130.251 89.8341C129.441 90.2024 128.872 90.8212 128.546 91.6904C128.22 92.5596 128.243 93.3957 128.614 94.1989C128.99 95.0125 129.612 95.5823 130.481 95.9085C131.358 96.2374 132.202 96.2178 133.012 95.8494C133.828 95.4915 134.399 94.878 134.725 94.0088C135.051 93.1396 135.026 92.2982 134.65 91.4847C134.279 90.6815 133.655 90.1154 132.778 89.7864C131.909 89.4603 131.067 89.4762 130.251 89.8341Z" fill="white"/>
<path id="[Copy] &#209;&#130;&#208;&#181;&#208;&#188;&#208;&#191; &#208;&#188;&#208;&#190;&#209;&#130;&#208;&#190;&#209;&#128;&#208;&#189;&#209;&#139;&#208;&#181; &#208;&#188;&#208;&#176;&#209;&#129;&#208;&#187;&#208;&#176;_3" d="M130.126 106.595L129.193 106.08L130.404 103.885L123.915 100.306L124.453 99.3302L130.942 102.91L132.147 100.726L133.08 101.24L130.126 106.595Z" fill="white"/>
<path id="[Copy] &#209;&#130;&#208;&#181;&#208;&#188;&#208;&#191; &#208;&#188;&#208;&#190;&#209;&#130;&#208;&#190;&#209;&#128;&#208;&#189;&#209;&#139;&#208;&#181; &#208;&#188;&#208;&#176;&#209;&#129;&#208;&#187;&#208;&#176;_4" d="M118.287 110.816C118.168 109.617 118.499 108.545 119.281 107.599C120.063 106.654 121.054 106.127 122.253 106.019C123.453 105.911 124.523 106.245 125.462 107.022C126.408 107.804 126.937 108.791 127.05 109.985C127.17 111.183 126.838 112.255 126.056 113.201C125.275 114.147 124.284 114.674 123.084 114.782C121.886 114.901 120.814 114.57 119.868 113.788C118.929 113.011 118.402 112.02 118.287 110.816ZM122.348 107.102C121.461 107.186 120.722 107.586 120.13 108.301C119.539 109.017 119.288 109.815 119.377 110.695C119.467 111.587 119.87 112.328 120.586 112.92C121.307 113.517 122.111 113.773 122.998 113.689C123.885 113.616 124.625 113.222 125.217 112.507C125.808 111.791 126.059 110.988 125.968 110.096C125.879 109.216 125.474 108.477 124.752 107.88C124.037 107.289 123.235 107.029 122.348 107.102Z" fill="white"/>
<path id="[Copy] &#209;&#130;&#208;&#181;&#208;&#188;&#208;&#191; &#208;&#188;&#208;&#190;&#209;&#130;&#208;&#190;&#209;&#128;&#208;&#189;&#209;&#139;&#208;&#181; &#208;&#188;&#208;&#176;&#209;&#129;&#208;&#187;&#208;&#176;_5" d="M118.359 121.486C117.772 122.005 117.112 122.238 116.377 122.187C115.642 122.147 115.017 121.837 114.504 121.256C113.997 120.681 113.766 120.024 113.811 119.283C113.851 118.548 114.164 117.921 114.751 117.403L116.212 116.112L114.208 113.843L115.052 113.097L120.664 119.45L118.359 121.486ZM115.449 118.192C115.098 118.502 114.912 118.877 114.89 119.316C114.874 119.761 115.024 120.162 115.339 120.519C115.66 120.882 116.039 121.08 116.478 121.112C116.916 121.145 117.311 121.007 117.662 120.697L119.123 119.406L116.91 116.901L115.449 118.192Z" fill="white"/>
<path id="[Copy] &#209;&#130;&#208;&#181;&#208;&#188;&#208;&#191; &#208;&#188;&#208;&#190;&#209;&#130;&#208;&#190;&#209;&#128;&#208;&#189;&#209;&#139;&#208;&#181; &#208;&#188;&#208;&#176;&#209;&#129;&#208;&#187;&#208;&#176;_6" d="M109.032 128.692L108.086 129.279L103.614 122.078L104.561 121.491L106.573 124.731L110.07 122.559L108.058 119.319L109.015 118.725L113.486 125.926L112.53 126.52L110.633 123.465L107.135 125.636L109.032 128.692Z" fill="white"/>
<path id="[Copy] &#209;&#130;&#208;&#181;&#208;&#188;&#208;&#191; &#208;&#188;&#208;&#190;&#209;&#130;&#208;&#190;&#209;&#128;&#208;&#189;&#209;&#139;&#208;&#181; &#208;&#188;&#208;&#176;&#209;&#129;&#208;&#187;&#208;&#176;_7" d="M100.903 124.152L103.881 132.088L102.827 132.484L101.763 129.649L99.9377 130.334C99.2046 130.609 98.504 130.592 97.836 130.282C97.1603 129.975 96.6878 129.463 96.4184 128.745C96.1462 128.019 96.1635 127.319 96.4704 126.643C96.7727 125.978 97.2903 125.508 98.0235 125.233L100.903 124.152ZM94.6563 126.496L97.6341 134.432L96.5798 134.828L93.602 126.892L94.6563 126.496ZM100.219 125.534L98.3936 126.219C97.9552 126.383 97.6477 126.667 97.4711 127.07C97.2945 127.472 97.2913 127.9 97.4614 128.354C97.6316 128.807 97.9156 129.127 98.3134 129.314C98.7112 129.501 99.1293 129.513 99.5676 129.348L101.393 128.663L100.219 125.534Z" fill="white"/>
<path id="[Copy] &#209;&#130;&#208;&#181;&#208;&#188;&#208;&#191; &#208;&#188;&#208;&#190;&#209;&#130;&#208;&#190;&#209;&#128;&#208;&#189;&#209;&#139;&#208;&#181; &#208;&#188;&#208;&#176;&#209;&#129;&#208;&#187;&#208;&#176;_8" d="M89.9261 129.275L86.0783 130.101L85.8547 129.059L90.8036 127.997L92.582 136.285L87.6924 137.334L87.4688 136.292L91.2574 135.479L90.7112 132.934L87.2185 133.683L86.9975 132.653L90.4901 131.904L89.9261 129.275Z" fill="white"/>
<path id="[Copy] &#209;&#130;&#208;&#181;&#208;&#188;&#208;&#191; &#208;&#188;&#208;&#190;&#209;&#130;&#208;&#190;&#209;&#128;&#208;&#189;&#209;&#139;&#208;&#181; &#208;&#188;&#208;&#176;&#209;&#129;&#208;&#187;&#208;&#176;_9" d="M71.2125 138.529L71.5722 130.06L72.6852 130.107L72.4041 136.725L75.3704 132.233L75.5156 132.239L78.0907 136.954L78.3713 130.349L79.4964 130.397L79.1367 138.865L77.8664 138.811L75.3587 134.22L72.4828 138.583L71.2125 138.529Z" fill="white"/>
<path id="[Copy] &#209;&#130;&#208;&#181;&#208;&#188;&#208;&#191; &#208;&#188;&#208;&#190;&#209;&#130;&#208;&#190;&#209;&#128;&#208;&#189;&#209;&#139;&#208;&#181; &#208;&#188;&#208;&#176;&#209;&#129;&#208;&#187;&#208;&#176;_10" d="M63.1249 128.895L63.4008 130.898L67.1303 131.699L68.204 129.985L69.3761 130.236L64.5076 137.861L63.2644 137.594L61.9528 128.643L63.1249 128.895ZM66.5304 132.647L63.5587 132.01L64.1739 136.414L66.5304 132.647Z" fill="white"/>
<path id="[Copy] &#209;&#130;&#208;&#181;&#208;&#188;&#208;&#191; &#208;&#188;&#208;&#190;&#209;&#130;&#208;&#190;&#209;&#128;&#208;&#189;&#209;&#139;&#208;&#181; &#208;&#188;&#208;&#176;&#209;&#129;&#208;&#187;&#208;&#176;_11" d="M56.1386 126.778C57.3244 127.269 58.143 128.067 58.5943 129.171C59.0382 130.273 59.0238 131.394 58.5511 132.535C58.0785 133.676 57.2959 134.479 56.2034 134.944C55.1034 135.406 53.9604 135.391 52.7746 134.9C52.0586 134.604 51.4733 134.16 51.0188 133.57C50.5567 132.977 50.2784 132.32 50.1837 131.599L51.3077 131.448C51.3523 131.974 51.5458 132.456 51.8882 132.895C52.2202 133.338 52.6546 133.671 53.1916 133.893C54.094 134.267 54.9529 134.282 55.7681 133.938C56.5759 133.591 57.1605 132.981 57.5219 132.109C57.8802 131.244 57.8965 130.403 57.5706 129.586C57.2372 128.767 56.6194 128.17 55.7169 127.796C55.1799 127.574 54.6389 127.498 54.0938 127.57C53.5382 127.645 53.0605 127.849 52.6607 128.182L51.9677 127.292C52.5368 126.846 53.196 126.573 53.9453 126.473C54.6915 126.38 55.4226 126.482 56.1386 126.778Z" fill="white"/>
<path id="[Copy] &#209;&#130;&#208;&#181;&#208;&#188;&#208;&#191; &#208;&#188;&#208;&#190;&#209;&#130;&#208;&#190;&#209;&#128;&#208;&#189;&#209;&#139;&#208;&#181; &#208;&#188;&#208;&#176;&#209;&#129;&#208;&#187;&#208;&#176;_12" d="M50.7952 125.088L50.246 125.944C49.8207 125.575 49.388 125.48 48.9477 125.658C48.4964 125.838 47.983 126.377 47.4077 127.274L44.8122 131.32L40.1033 128.3L44.6797 121.165L45.6276 121.773L41.6265 128.011L44.4396 129.815L46.4598 126.666C46.8695 126.027 47.275 125.529 47.6762 125.173C48.0663 124.819 48.4432 124.605 48.8069 124.531C49.1638 124.454 49.5043 124.461 49.8284 124.554C50.1414 124.649 50.4636 124.827 50.7952 125.088Z" fill="white"/>
<path id="[Copy] &#209;&#130;&#208;&#181;&#208;&#188;&#208;&#191; &#208;&#188;&#208;&#190;&#209;&#130;&#208;&#190;&#209;&#128;&#208;&#189;&#209;&#139;&#208;&#181; &#208;&#188;&#208;&#176;&#209;&#129;&#208;&#187;&#208;&#176;_13" d="M37.9348 115.96L37.1796 117.837L40.0197 120.383L41.8027 119.428L42.6953 120.228L34.6839 124.43L33.7372 123.581L37.0422 115.16L37.9348 115.96ZM39.028 120.909L36.7649 118.88L35.1123 123.009L39.028 120.909Z" fill="white"/>
<path id="[Copy] &#209;&#130;&#208;&#181;&#208;&#188;&#208;&#191; &#208;&#188;&#208;&#190;&#209;&#130;&#208;&#190;&#209;&#128;&#208;&#189;&#209;&#139;&#208;&#181; &#208;&#188;&#208;&#176;&#209;&#129;&#208;&#187;&#208;&#176;_14" d="M22.9473 111.802L23.8067 111.172L25.2886 113.194L31.2655 108.812L31.9241 109.711L25.9472 114.092L27.4219 116.104L26.5625 116.734L22.9473 111.802Z" fill="white"/>
<path id="[Copy] &#209;&#130;&#208;&#181;&#208;&#188;&#208;&#191; &#208;&#188;&#208;&#190;&#209;&#130;&#208;&#190;&#209;&#128;&#208;&#189;&#209;&#139;&#208;&#181; &#208;&#188;&#208;&#176;&#209;&#129;&#208;&#187;&#208;&#176;_15" d="M27.0965 104.834L25.2084 101.381L26.1433 100.87L28.5717 105.311L21.1348 109.377L18.7354 104.99L19.6703 104.478L21.5294 107.878L23.8136 106.629L22.0998 103.495L23.0241 102.989L24.7379 106.124L27.0965 104.834Z" fill="white"/>
<path id="[Copy] &#209;&#130;&#208;&#181;&#208;&#188;&#208;&#191; &#208;&#188;&#208;&#190;&#209;&#130;&#208;&#190;&#209;&#128;&#208;&#189;&#209;&#139;&#208;&#181; &#208;&#188;&#208;&#176;&#209;&#129;&#208;&#187;&#208;&#176;_16" d="M14.081 93.8776L22.1433 91.2611L22.4871 92.3207L16.187 94.3653L21.4312 95.5787L21.4761 95.7169L17.9554 99.7749L24.244 97.734L24.5916 98.8051L16.5293 101.422L16.1368 100.212L19.5648 96.2608L14.4734 95.087L14.081 93.8776Z" fill="white"/>
<path id="[Copy] &#209;&#130;&#208;&#181;&#208;&#188;&#208;&#191; &#208;&#188;&#208;&#190;&#209;&#130;&#208;&#190;&#209;&#128;&#208;&#189;&#209;&#139;&#208;&#181; &#208;&#188;&#208;&#176;&#209;&#129;&#208;&#187;&#208;&#176;_17" d="M11.7943 83.4917L20.1846 82.2878L20.3446 83.4025L13.009 84.4551L13.5628 88.3146L20.8983 87.2621L21.0583 88.3768L12.668 89.5807L11.7943 83.4917Z" fill="white"/>
<path id="[Copy] &#209;&#130;&#208;&#181;&#208;&#188;&#208;&#191; &#208;&#188;&#208;&#190;&#209;&#130;&#208;&#190;&#209;&#128;&#208;&#189;&#209;&#139;&#208;&#181; &#208;&#188;&#208;&#176;&#209;&#129;&#208;&#187;&#208;&#176;_18" d="M12.4562 62.492L20.7884 64.0483L20.5838 65.1434L14.0729 63.9273L18.0988 67.5001L18.0721 67.643L13.0398 69.524L19.5389 70.7378L19.3322 71.8448L11 70.2886L11.2334 69.0387L16.1334 67.207L12.2228 63.7419L12.4562 62.492Z" fill="white"/>
<path id="[Copy] &#209;&#130;&#208;&#181;&#208;&#188;&#208;&#191; &#208;&#188;&#208;&#190;&#209;&#130;&#208;&#190;&#209;&#128;&#208;&#189;&#209;&#139;&#208;&#181; &#208;&#188;&#208;&#176;&#209;&#129;&#208;&#187;&#208;&#176;_19" d="M22.637 53.9729C23.1116 55.08 23.1183 56.2021 22.6572 57.3392C22.1962 58.4763 21.4099 59.2769 20.2984 59.7409C19.187 60.2049 18.0664 60.2079 16.9367 59.7498C15.7996 59.2888 14.9975 58.5063 14.5305 57.4023C14.056 56.2952 14.0493 55.1732 14.5103 54.036C14.9714 52.8989 15.7576 52.0983 16.8691 51.6343C17.9761 51.1598 19.0982 51.1531 20.2354 51.6141C21.365 52.0722 22.1656 52.8584 22.637 53.9729ZM19.8827 58.736C20.7028 58.3891 21.2873 57.7855 21.6361 56.9251C21.9849 56.0648 21.9843 55.2283 21.6343 54.4157C21.2799 53.5926 20.6726 53.0066 19.8122 52.6578C18.9444 52.3059 18.1005 52.3034 17.2803 52.6504C16.4558 52.9868 15.8691 53.5852 15.5203 54.4455C15.1714 55.3058 15.1742 56.1476 15.5287 56.9707C15.8786 57.7834 16.4875 58.3656 17.3553 58.7175C18.2157 59.0663 19.0581 59.0725 19.8827 58.736Z" fill="white"/>
<path id="[Copy] &#209;&#130;&#208;&#181;&#208;&#188;&#208;&#191; &#208;&#188;&#208;&#190;&#209;&#130;&#208;&#190;&#209;&#128;&#208;&#189;&#209;&#139;&#208;&#181; &#208;&#188;&#208;&#176;&#209;&#129;&#208;&#187;&#208;&#176;_20" d="M20.3643 42.1122L21.2837 42.6508L20.0168 44.8136L26.4111 48.5593L25.848 49.5205L19.4537 45.7748L18.1929 47.9272L17.2734 47.3885L20.3643 42.1122Z" fill="white"/>
<path id="[Copy] &#209;&#130;&#208;&#181;&#208;&#188;&#208;&#191; &#208;&#188;&#208;&#190;&#209;&#130;&#208;&#190;&#209;&#128;&#208;&#189;&#209;&#139;&#208;&#181; &#208;&#188;&#208;&#176;&#209;&#129;&#208;&#187;&#208;&#176;_21" d="M32.2559 38.2088C32.3447 39.41 31.9862 40.4733 31.1805 41.3987C30.3748 42.3242 29.371 42.8256 28.169 42.903C26.9671 42.9804 25.9064 42.6189 24.987 41.8185C24.0616 41.0128 23.5575 40.012 23.4748 38.8161C23.386 37.615 23.7445 36.5517 24.5502 35.6262C25.3559 34.7008 26.3597 34.1993 27.5617 34.1219C28.7628 34.0331 29.8262 34.3916 30.7516 35.1973C31.671 35.9977 32.1724 37.0015 32.2559 38.2088ZM28.1025 41.8176C28.9909 41.7561 29.7399 41.3753 30.3494 40.6752C30.959 39.975 31.2305 39.1838 31.1637 38.3015C31.0962 37.4078 30.7123 36.6562 30.0121 36.0466C29.3059 35.4317 28.5086 35.155 27.6202 35.2165C26.7311 35.2665 25.9817 35.6416 25.3721 36.3418C24.7625 37.042 24.4915 37.8389 24.559 38.7326C24.6258 39.6148 25.0123 40.3634 25.7186 40.9783C26.4187 41.5879 27.2134 41.8676 28.1025 41.8176Z" fill="white"/>
<path id="[Copy] &#209;&#130;&#208;&#181;&#208;&#188;&#208;&#191; &#208;&#188;&#208;&#190;&#209;&#130;&#208;&#190;&#209;&#128;&#208;&#189;&#209;&#139;&#208;&#181; &#208;&#188;&#208;&#176;&#209;&#129;&#208;&#187;&#208;&#176;_22" d="M32.4029 27.545C33.0028 27.0417 33.6692 26.825 34.4023 26.8948C35.1363 26.9533 35.7524 27.2793 36.2506 27.873C36.7436 28.4605 36.9577 29.1238 36.8931 29.8631C36.8346 30.5971 36.5054 31.2158 35.9056 31.7192L34.4122 32.9723L36.3581 35.2913L35.4954 36.0152L30.0469 29.5221L32.4029 27.545ZM35.2284 30.9122C35.5871 30.6112 35.7827 30.2415 35.8153 29.8032C35.8427 29.3586 35.7034 28.9539 35.3972 28.5891C35.0859 28.2181 34.7115 28.0105 34.2742 27.9666C33.8368 27.9226 33.4388 28.0511 33.0801 28.352L31.5867 29.6052L33.735 32.1653L35.2284 30.9122Z" fill="white"/>
<path id="[Copy] &#209;&#130;&#208;&#181;&#208;&#188;&#208;&#191; &#208;&#188;&#208;&#190;&#209;&#130;&#208;&#190;&#209;&#128;&#208;&#189;&#209;&#139;&#208;&#181; &#208;&#188;&#208;&#176;&#209;&#129;&#208;&#187;&#208;&#176;_23" d="M41.9167 20.5271L42.8779 19.964L47.1622 27.2778L46.201 27.8409L44.2731 24.5497L40.7206 26.6306L42.6486 29.9218L41.6769 30.491L37.3926 23.1772L38.3643 22.608L40.182 25.7112L43.7345 23.6302L41.9167 20.5271Z" fill="white"/>
<path id="[Copy] &#209;&#130;&#208;&#181;&#208;&#188;&#208;&#191; &#208;&#188;&#208;&#190;&#209;&#130;&#208;&#190;&#209;&#128;&#208;&#189;&#209;&#139;&#208;&#181; &#208;&#188;&#208;&#176;&#209;&#129;&#208;&#187;&#208;&#176;_24" d="M50.0375 25.1909L47.2695 17.1793L48.3339 16.8116L49.3225 19.6729L51.1652 19.0362C51.9053 18.7805 52.6052 18.8163 53.2648 19.1435C53.9321 19.4681 54.391 19.9928 54.6414 20.7177C54.8945 21.4502 54.8588 22.1501 54.5342 22.8174C54.2145 23.4744 53.6847 23.9308 52.9446 24.1865L50.0375 25.1909ZM56.3438 23.0121L53.5758 15.0005L54.6402 14.6328L57.4082 22.6444L56.3438 23.0121ZM50.7579 23.8274L52.6005 23.1908C53.0431 23.0379 53.3579 22.7626 53.5451 22.3648C53.7322 21.9671 53.7467 21.5393 53.5885 21.0815C53.4303 20.6237 53.1549 20.2961 52.7621 20.0987C52.3694 19.9013 51.9517 19.879 51.5092 20.0319L49.6665 20.6686L50.7579 23.8274Z" fill="white"/>
<path id="[Copy] &#209;&#130;&#208;&#181;&#208;&#188;&#208;&#191; &#208;&#188;&#208;&#190;&#209;&#130;&#208;&#190;&#209;&#128;&#208;&#189;&#209;&#139;&#208;&#181; &#208;&#188;&#208;&#176;&#209;&#129;&#208;&#187;&#208;&#176;_25" d="M61.1688 20.3353L65.0373 19.6127L65.2329 20.6602L60.2574 21.5895L58.7012 13.2573L63.6172 12.3391L63.8128 13.3866L60.0038 14.098L60.4818 16.6572L63.9932 16.0013L64.1866 17.0369L60.6752 17.6928L61.1688 20.3353Z" fill="white"/>
<path id="[Copy] &#209;&#130;&#208;&#181;&#208;&#188;&#208;&#191; &#208;&#188;&#208;&#190;&#209;&#130;&#208;&#190;&#209;&#128;&#208;&#189;&#209;&#139;&#208;&#181; &#208;&#188;&#208;&#176;&#209;&#129;&#208;&#187;&#208;&#176;_26" d="M80.0197 11.5503L79.4315 20.0061L78.3202 19.9288L78.7798 13.3212L75.6934 17.7312L75.5485 17.7211L73.1015 12.9384L72.6427 19.534L71.5193 19.4558L72.1074 11L73.3758 11.0882L75.7587 15.7451L78.7513 11.4621L80.0197 11.5503Z" fill="white"/>
<path id="[Copy] &#209;&#130;&#208;&#181;&#208;&#188;&#208;&#191; &#208;&#188;&#208;&#190;&#209;&#130;&#208;&#190;&#209;&#128;&#208;&#189;&#209;&#139;&#208;&#181; &#208;&#188;&#208;&#176;&#209;&#129;&#208;&#187;&#208;&#176;_27" d="M87.8942 21.3716L87.6717 19.3613L83.965 18.4619L82.8459 20.1466L81.6809 19.8639L86.751 12.372L87.9866 12.6718L89.0591 21.6542L87.8942 21.3716ZM84.5899 17.5295L87.5436 18.2462L87.046 13.8266L84.5899 17.5295Z" fill="white"/>
<path id="[Copy] &#209;&#130;&#208;&#181;&#208;&#188;&#208;&#191; &#208;&#188;&#208;&#190;&#209;&#130;&#208;&#190;&#209;&#128;&#208;&#189;&#209;&#139;&#208;&#181; &#208;&#188;&#208;&#176;&#209;&#129;&#208;&#187;&#208;&#176;_28" d="M94.6731 23.5797C93.5005 23.0578 92.703 22.2389 92.2807 21.1231C91.8658 20.0106 91.9094 18.8901 92.4117 17.7618C92.914 16.6334 93.7173 15.8511 94.8216 15.4149C95.9333 14.9819 97.0755 15.0264 98.2481 15.5484C98.9561 15.8635 99.5296 16.322 99.9686 16.9239C100.415 17.5291 100.676 18.1931 100.752 18.9161L99.6243 19.0372C99.5935 18.5109 99.4126 18.024 99.0817 17.5763C98.7615 17.1244 98.3359 16.7804 97.8049 16.544C96.9125 16.1468 96.0544 16.1094 95.2304 16.4319C94.4139 16.7576 93.8136 17.3519 93.4295 18.2148C93.0487 19.0703 93.0105 19.9104 93.3149 20.7352C93.6267 21.5632 94.2288 22.1758 95.1212 22.573C95.6522 22.8094 96.1911 22.8991 96.7378 22.842C97.2952 22.7808 97.7781 22.5893 98.1864 22.2674L98.856 23.1752C98.2754 23.606 97.6093 23.8617 96.8577 23.9424C96.1093 24.0158 95.3811 23.8949 94.6731 23.5797Z" fill="white"/>
<path id="[Copy] &#209;&#130;&#208;&#181;&#208;&#188;&#208;&#191; &#208;&#188;&#208;&#190;&#209;&#130;&#208;&#190;&#209;&#128;&#208;&#189;&#209;&#139;&#208;&#181; &#208;&#188;&#208;&#176;&#209;&#129;&#208;&#187;&#208;&#176;_29" d="M100.072 25.4187L100.643 24.5769C101.059 24.9564 101.489 25.0628 101.934 24.8962C102.389 24.7275 102.916 24.2021 103.515 23.3203L106.213 19.3418L110.843 22.482L106.085 29.497L105.153 28.8648L109.313 22.7318L106.547 20.8558L104.447 23.9524C104.021 24.5804 103.603 25.0674 103.192 25.4134C102.793 25.7573 102.411 25.9613 102.045 26.0256C101.687 26.0944 101.346 26.0782 101.025 25.9771C100.714 25.8739 100.397 25.6878 100.072 25.4187Z" fill="white"/>
<path id="[Copy] &#209;&#130;&#208;&#181;&#208;&#188;&#208;&#191; &#208;&#188;&#208;&#190;&#209;&#130;&#208;&#190;&#209;&#128;&#208;&#189;&#209;&#139;&#208;&#181; &#208;&#188;&#208;&#176;&#209;&#129;&#208;&#187;&#208;&#176;_30" d="M112.885 35.0134L113.694 33.1599L110.93 30.5322L109.12 31.4348L108.251 30.6089L116.381 26.6421L117.302 27.5179L113.754 35.8393L112.885 35.0134ZM111.936 30.0355L114.139 32.1293L115.911 28.0501L111.936 30.0355Z" fill="white"/>
<path id="[Copy] &#209;&#130;&#208;&#181;&#208;&#188;&#208;&#191; &#208;&#188;&#208;&#190;&#209;&#130;&#208;&#190;&#209;&#128;&#208;&#189;&#209;&#139;&#208;&#181; &#208;&#188;&#208;&#176;&#209;&#129;&#208;&#187;&#208;&#176;_31" d="M127.707 39.4891L126.831 40.0969L125.402 38.038L119.315 42.2649L118.679 41.3498L124.766 37.123L123.343 35.0741L124.219 34.4663L127.707 39.4891Z" fill="white"/>
<path id="[Copy] &#209;&#130;&#208;&#181;&#208;&#188;&#208;&#191; &#208;&#188;&#208;&#190;&#209;&#130;&#208;&#190;&#209;&#128;&#208;&#189;&#209;&#139;&#208;&#181; &#208;&#188;&#208;&#176;&#209;&#129;&#208;&#187;&#208;&#176;_32" d="M123.37 46.3184L125.168 49.819L124.22 50.3058L121.908 45.8035L129.447 41.9307L131.732 46.3791L130.784 46.866L129.014 43.4192L126.698 44.6088L128.33 47.7862L127.393 48.2676L125.761 45.0901L123.37 46.3184Z" fill="white"/>
<path id="[Copy] &#209;&#130;&#208;&#181;&#208;&#188;&#208;&#191; &#208;&#188;&#208;&#190;&#209;&#130;&#208;&#190;&#209;&#128;&#208;&#189;&#209;&#139;&#208;&#181; &#208;&#188;&#208;&#176;&#209;&#129;&#208;&#187;&#208;&#176;_33" d="M136.115 57.6304L127.987 60.0328L127.671 58.9645L134.023 57.0872L128.812 55.7355L128.771 55.5962L132.398 51.6328L126.058 53.5067L125.739 52.4267L133.867 50.0243L134.228 51.2436L130.696 55.103L135.755 56.4111L136.115 57.6304Z" fill="white"/>
<path id="[Copy] &#209;&#130;&#208;&#181;&#208;&#188;&#208;&#191; &#208;&#188;&#208;&#190;&#209;&#130;&#208;&#190;&#209;&#128;&#208;&#189;&#209;&#139;&#208;&#181; &#208;&#188;&#208;&#176;&#209;&#129;&#208;&#187;&#208;&#176;_34" d="M138.124 67.9176L129.708 68.9278L129.574 67.8097L136.932 66.9265L136.467 63.0552L129.109 63.9384L128.975 62.8203L137.391 61.8101L138.124 67.9176Z" fill="white"/>
</g>
</g>
</svg>
