<svg width="119" height="91" viewBox="0 0 119 91" fill="none" xmlns="http://www.w3.org/2000/svg">
<rect width="26.8654" height="26.8654" rx="3" transform="matrix(0.70723 -0.706983 0.70723 0.706983 81 18.9934)" fill="white"/>
<ellipse cx="100.043" cy="18.996" rx="10.8814" ry="10.8781" fill="#1C202A"/>
<rect x="93.2412" y="12.1953" width="13.6984" height="13.6933" rx="3" fill="white"/>
<ellipse cx="100.024" cy="18.9751" rx="4.74178" ry="4.73978" fill="#1C202A"/>
<rect width="3.0739" height="3.0739" rx="1" transform="matrix(0.707197 -0.707016 0.707197 0.707016 98.002 18.9934)" fill="white"/>
<path d="M3.96 83.0088H1.746V70.4088C2.01 70.4088 2.688 70.4028 3.78 70.3908C4.884 70.3788 5.484 70.3728 5.58 70.3728C8.628 70.3728 10.152 71.6688 10.152 74.2608C10.152 75.2328 9.906 76.0248 9.414 76.6368C8.922 77.2368 8.358 77.6448 7.722 77.8608L11.664 83.0088H8.982L5.508 78.2928H3.96V83.0088ZM5.472 72.4428C5.256 72.4428 4.752 72.4548 3.96 72.4788V76.2228H5.4C6.084 76.2228 6.654 76.0548 7.11 75.7188C7.578 75.3708 7.812 74.8908 7.812 74.2788C7.812 73.0548 7.032 72.4428 5.472 72.4428ZM18.6154 80.7408L19.2094 82.1988C18.4174 82.8708 17.3854 83.2068 16.1134 83.2068C14.8054 83.2068 13.7494 82.8168 12.9454 82.0368C12.1534 81.2568 11.7574 80.2308 11.7574 78.9588C11.7574 77.7468 12.1474 76.7388 12.9274 75.9348C13.7074 75.1188 14.7454 74.7108 16.0414 74.7108C17.1094 74.7108 18.0154 75.0648 18.7594 75.7728C19.5034 76.4688 19.8754 77.3688 19.8754 78.4728C19.8754 78.9288 19.8334 79.3008 19.7494 79.5888H13.8994C13.9834 80.1888 14.2474 80.6568 14.6914 80.9928C15.1354 81.3168 15.6814 81.4788 16.3294 81.4788C17.2414 81.4788 18.0034 81.2328 18.6154 80.7408ZM15.9514 76.4388C14.7754 76.4388 14.0674 77.0268 13.8274 78.2028H17.8054C17.8174 77.6988 17.6554 77.2788 17.3194 76.9428C16.9834 76.6068 16.5274 76.4388 15.9514 76.4388ZM27.1959 86.6088V82.5948C26.5599 83.0028 25.8939 83.2068 25.1979 83.2068C23.9139 83.2068 22.8879 82.8228 22.1199 82.0548C21.3639 81.2748 20.9859 80.2428 20.9859 78.9588C20.9859 77.7588 21.4239 76.7508 22.2999 75.9348C23.1759 75.1188 24.2859 74.7108 25.6299 74.7108C27.0219 74.7108 28.2339 75.0348 29.2659 75.6828V86.6088H27.1959ZM25.4679 81.2808C26.1639 81.2808 26.7399 81.0348 27.1959 80.5428V77.0508C26.6439 76.7868 26.1159 76.6548 25.6119 76.6548C24.8559 76.6548 24.2619 76.8888 23.8299 77.3568C23.4099 77.8128 23.1999 78.3768 23.1999 79.0488C23.1999 79.6968 23.4039 80.2308 23.8119 80.6508C24.2319 81.0708 24.7839 81.2808 25.4679 81.2808ZM38.8706 74.9088V83.0088H36.8006V82.0188C36.1526 82.8108 35.2886 83.2068 34.2086 83.2068C33.3686 83.2068 32.6846 82.9248 32.1566 82.3608C31.6286 81.7968 31.3646 80.9628 31.3646 79.8588V74.9088H33.4346V79.4268C33.4346 80.6628 33.9506 81.2808 34.9826 81.2808C35.6906 81.2808 36.2966 80.9508 36.8006 80.2908V74.9088H38.8706ZM47.5314 80.7408L48.1254 82.1988C47.3334 82.8708 46.3014 83.2068 45.0294 83.2068C43.7214 83.2068 42.6654 82.8168 41.8614 82.0368C41.0694 81.2568 40.6734 80.2308 40.6734 78.9588C40.6734 77.7468 41.0634 76.7388 41.8434 75.9348C42.6234 75.1188 43.6614 74.7108 44.9574 74.7108C46.0254 74.7108 46.9314 75.0648 47.6754 75.7728C48.4194 76.4688 48.7914 77.3688 48.7914 78.4728C48.7914 78.9288 48.7494 79.3008 48.6654 79.5888H42.8154C42.8994 80.1888 43.1634 80.6568 43.6074 80.9928C44.0514 81.3168 44.5974 81.4788 45.2454 81.4788C46.1574 81.4788 46.9194 81.2328 47.5314 80.7408ZM44.8674 76.4388C43.6914 76.4388 42.9834 77.0268 42.7434 78.2028H46.7214C46.7334 77.6988 46.5714 77.2788 46.2354 76.9428C45.8994 76.6068 45.4434 76.4388 44.8674 76.4388ZM54.2566 81.2808C54.4606 81.1488 54.5626 80.9628 54.5626 80.7228C54.5626 80.4828 54.4126 80.2908 54.1126 80.1468C53.8126 79.9908 53.4466 79.8588 53.0146 79.7508C52.5946 79.6308 52.1686 79.4928 51.7366 79.3368C51.3046 79.1688 50.9386 78.9048 50.6386 78.5448C50.3386 78.1848 50.1886 77.7288 50.1886 77.1768C50.1886 76.4088 50.4646 75.8088 51.0166 75.3768C51.5806 74.9328 52.2946 74.7108 53.1586 74.7108C54.4786 74.7108 55.5046 75.0528 56.2366 75.7368L55.4626 77.2128C54.8026 76.6968 54.0706 76.4388 53.2666 76.4388C52.9666 76.4388 52.7206 76.5108 52.5286 76.6548C52.3486 76.7868 52.2586 76.9488 52.2586 77.1408C52.2586 77.3808 52.4086 77.5788 52.7086 77.7348C53.0086 77.8908 53.3686 78.0228 53.7886 78.1308C54.2206 78.2388 54.6526 78.3708 55.0846 78.5268C55.5166 78.6828 55.8826 78.9408 56.1826 79.3008C56.4826 79.6488 56.6326 80.0868 56.6326 80.6148C56.6326 81.4068 56.3326 82.0368 55.7326 82.5048C55.1446 82.9728 54.3526 83.2068 53.3566 83.2068C52.6606 83.2068 51.9706 83.0568 51.2866 82.7568C50.6146 82.4568 50.1766 82.1448 49.9726 81.8208L50.9806 80.4708C51.2206 80.7348 51.5986 80.9688 52.1146 81.1728C52.6306 81.3768 53.0926 81.4788 53.5006 81.4788C53.8126 81.4788 54.0646 81.4128 54.2566 81.2808ZM58.2767 79.9308V72.6588H60.3467V74.9088H62.9567V76.8528H60.3467V79.8048C60.3467 80.7768 60.6707 81.2628 61.3187 81.2628C61.7267 81.2628 62.1407 81.1068 62.5607 80.7948L63.1907 82.3968C62.5427 82.9248 61.7447 83.1888 60.7967 83.1888C59.9087 83.1888 59.2667 82.9188 58.8707 82.3788C58.4747 81.8268 58.2767 81.0108 58.2767 79.9308ZM69.4964 83.0088V71.1088H69.6834C69.9554 71.1088 70.4087 71.1031 71.0434 71.0918C71.678 71.0691 72.1767 71.0578 72.5394 71.0578C73.6954 71.0578 74.7097 71.2165 75.5824 71.5338C76.455 71.8398 77.152 72.2705 77.6734 72.8258C78.1947 73.3698 78.58 73.9875 78.8294 74.6788C79.09 75.3588 79.2204 76.0955 79.2204 76.8888C79.2204 78.6795 78.6254 80.1528 77.4354 81.3088C76.2567 82.4648 74.5794 83.0428 72.4034 83.0428C72.12 83.0428 71.6724 83.0371 71.0604 83.0258C70.4484 83.0145 69.978 83.0088 69.6494 83.0088H69.4964ZM72.5054 71.9418C72.2447 71.9418 72.001 71.9475 71.7744 71.9588C71.5477 71.9588 71.304 71.9645 71.0434 71.9758C70.794 71.9871 70.59 71.9928 70.4314 71.9928V82.1248C71.7234 82.1475 72.392 82.1588 72.4374 82.1588C74.2847 82.1588 75.7127 81.6715 76.7214 80.6968C77.73 79.7108 78.2344 78.4415 78.2344 76.8888C78.2344 75.4268 77.7527 74.2368 76.7894 73.3188C75.826 72.4008 74.398 71.9418 72.5054 71.9418ZM87.4555 81.3938L87.7445 82.0738C87.0532 82.7991 86.1125 83.1618 84.9225 83.1618C83.7099 83.1618 82.7295 82.7991 81.9815 82.0738C81.2335 81.3485 80.8595 80.3851 80.8595 79.1838C80.8595 78.0278 81.1995 77.0758 81.8795 76.3278C82.5709 75.5798 83.5229 75.2058 84.7355 75.2058C85.7329 75.2058 86.5602 75.5231 87.2175 76.1578C87.8749 76.7925 88.2035 77.6255 88.2035 78.6568C88.2035 78.9288 88.1865 79.1668 88.1525 79.3708H81.8455C81.8795 80.2888 82.1799 81.0141 82.7465 81.5468C83.3132 82.0681 84.0555 82.3288 84.9735 82.3288C86.0275 82.3288 86.8549 82.0171 87.4555 81.3938ZM84.6505 76.0388C83.8232 76.0388 83.1602 76.2825 82.6615 76.7698C82.1629 77.2458 81.8739 77.8691 81.7945 78.6398H87.3025C87.2912 77.8351 87.0475 77.2005 86.5715 76.7358C86.0955 76.2711 85.4552 76.0388 84.6505 76.0388ZM94.2796 81.0028C94.2796 80.6515 94.1323 80.3681 93.8376 80.1528C93.5543 79.9375 93.2029 79.7675 92.7836 79.6428C92.3756 79.5181 91.9619 79.3821 91.5426 79.2348C91.1233 79.0761 90.7663 78.8325 90.4716 78.5038C90.1883 78.1751 90.0466 77.7501 90.0466 77.2288C90.0466 76.6168 90.2733 76.1295 90.7266 75.7668C91.1799 75.3928 91.7749 75.2058 92.5116 75.2058C93.5656 75.2058 94.3646 75.4891 94.9086 76.0558L94.5346 76.7188C94.0133 76.2315 93.3446 75.9878 92.5286 75.9878C92.0639 75.9878 91.6899 76.1068 91.4066 76.3448C91.1233 76.5828 90.9816 76.8718 90.9816 77.2118C90.9816 77.5858 91.1233 77.8861 91.4066 78.1128C91.7013 78.3395 92.0526 78.5208 92.4606 78.6568C92.8799 78.7815 93.2993 78.9175 93.7186 79.0648C94.1379 79.2121 94.4893 79.4445 94.7726 79.7618C95.0673 80.0678 95.2146 80.4701 95.2146 80.9688C95.2146 81.6828 94.9483 82.2268 94.4156 82.6008C93.8943 82.9748 93.2426 83.1618 92.4606 83.1618C91.9393 83.1618 91.4179 83.0485 90.8966 82.8218C90.3753 82.5951 90.0239 82.3401 89.8426 82.0568L90.3356 81.4788C90.5396 81.7395 90.8626 81.9548 91.3046 82.1248C91.7466 82.2948 92.1659 82.3798 92.5626 82.3798C93.0386 82.3798 93.4409 82.2608 93.7696 82.0228C94.1096 81.7848 94.2796 81.4448 94.2796 81.0028ZM97.8491 83.0088V75.3588H98.7331V83.0088H97.8491ZM97.6961 72.3838C97.6961 72.2138 97.7584 72.0778 97.8831 71.9758C98.0077 71.8738 98.1551 71.8228 98.3251 71.8228C98.4724 71.8228 98.6027 71.8795 98.7161 71.9928C98.8407 72.0948 98.9031 72.2251 98.9031 72.3838C98.9031 72.5765 98.8464 72.7295 98.7331 72.8428C98.6197 72.9561 98.4837 73.0128 98.3251 73.0128C98.1437 73.0128 97.9907 72.9561 97.8661 72.8428C97.7527 72.7295 97.6961 72.5765 97.6961 72.3838ZM100.752 84.1308C100.752 83.5415 100.956 83.0541 101.364 82.6688C101.783 82.2721 102.361 81.9945 103.098 81.8358C102.928 81.6318 102.843 81.3881 102.843 81.1048C102.843 80.8101 102.939 80.5551 103.132 80.3398C102.633 80.1245 102.242 79.8015 101.959 79.3708C101.675 78.9401 101.534 78.4528 101.534 77.9088C101.534 77.1268 101.811 76.4808 102.367 75.9708C102.922 75.4608 103.653 75.2058 104.56 75.2058C105.285 75.2058 105.925 75.3985 106.481 75.7838H106.498L108.674 75.2058V76.0388L107.127 76.4298C107.433 76.8831 107.586 77.3761 107.586 77.9088C107.586 78.6795 107.302 79.3255 106.736 79.8468C106.18 80.3568 105.455 80.6118 104.56 80.6118C104.265 80.6118 104.01 80.5891 103.795 80.5438C103.693 80.6911 103.642 80.8781 103.642 81.1048C103.642 81.3541 103.715 81.5581 103.863 81.7168C104.18 81.6941 104.418 81.6828 104.577 81.6828C105.733 81.6828 106.656 81.8981 107.348 82.3288C108.05 82.7481 108.402 83.3488 108.402 84.1308C108.402 84.9015 108.05 85.4965 107.348 85.9158C106.645 86.3351 105.721 86.5448 104.577 86.5448C103.421 86.5448 102.491 86.3351 101.789 85.9158C101.097 85.5078 100.752 84.9128 100.752 84.1308ZM101.653 84.1308C101.653 84.6295 101.913 85.0205 102.435 85.3038C102.967 85.5985 103.681 85.7458 104.577 85.7458C105.472 85.7458 106.18 85.5985 106.702 85.3038C107.234 85.0205 107.501 84.6295 107.501 84.1308C107.501 83.6321 107.234 83.2355 106.702 82.9408C106.18 82.6348 105.472 82.4818 104.577 82.4818C103.693 82.4818 102.984 82.6291 102.452 82.9238C101.919 83.2185 101.653 83.6208 101.653 84.1308ZM103.03 76.5488C102.633 76.9115 102.435 77.3648 102.435 77.9088C102.435 78.4528 102.633 78.9061 103.03 79.2688C103.426 79.6315 103.936 79.8128 104.56 79.8128C105.183 79.8128 105.693 79.6315 106.09 79.2688C106.486 78.9061 106.685 78.4528 106.685 77.9088C106.685 77.3648 106.481 76.9115 106.073 76.5488C105.676 76.1861 105.172 76.0048 104.56 76.0048C103.948 76.0048 103.438 76.1861 103.03 76.5488ZM110.191 83.0088V75.3588H111.075V76.4298C111.381 76.0898 111.783 75.8065 112.282 75.5798C112.792 75.3418 113.307 75.2228 113.829 75.2228C114.883 75.2228 115.676 75.5005 116.209 76.0558C116.753 76.5998 117.025 77.4611 117.025 78.6398V83.0088H116.141V78.8098C116.141 76.9738 115.302 76.0558 113.625 76.0558C113.126 76.0558 112.644 76.1691 112.18 76.3958C111.715 76.6225 111.347 76.9001 111.075 77.2288V83.0088H110.191Z" fill="white"/>
<path d="M29.0049 61V51.1699H31.5889C32.2542 51.1699 32.7806 51.2087 33.168 51.2861C33.5599 51.3682 33.9108 51.5072 34.2207 51.7031C34.4896 51.8717 34.722 52.0814 34.918 52.332C35.1139 52.5781 35.262 52.8516 35.3623 53.1523C35.4671 53.4531 35.5195 53.7721 35.5195 54.1094C35.5195 54.5833 35.4238 55.0163 35.2324 55.4082C35.041 55.8001 34.763 56.1283 34.3984 56.3926C34.1888 56.5475 33.9632 56.6729 33.7217 56.7686C33.4801 56.8597 33.2067 56.9258 32.9014 56.9668C32.6006 57.0124 32.2451 57.0352 31.835 57.0352H29.9893V61H29.0049ZM29.9893 56.1396H31.6846C32.1859 56.1396 32.5846 56.1123 32.8809 56.0576C33.1816 55.9984 33.446 55.8958 33.6738 55.75C33.9473 55.5768 34.1569 55.3467 34.3027 55.0596C34.4486 54.7679 34.5215 54.4466 34.5215 54.0957C34.5215 53.681 34.4144 53.3141 34.2002 52.9951C33.9906 52.6761 33.6921 52.4368 33.3047 52.2773C32.9492 52.127 32.4411 52.0518 31.7803 52.0518H31.5889L31.418 52.0654H31.2607H29.9893V56.1396ZM44.126 53.7197V60.9932H43.1689V59.626C42.9912 59.9313 42.7907 60.1888 42.5674 60.3984C41.9704 60.9089 41.2344 61.1641 40.3594 61.1641C39.776 61.1641 39.1836 61.0205 38.582 60.7334C37.9805 60.4417 37.5042 60.0726 37.1533 59.626C36.9346 59.3389 36.7591 58.9925 36.627 58.5869C36.4993 58.1768 36.4355 57.7666 36.4355 57.3564C36.4355 56.6729 36.6087 56.0394 36.9551 55.4561C37.306 54.8727 37.7822 54.4124 38.3838 54.0752C38.9808 53.7334 39.6302 53.5625 40.332 53.5625C40.7695 53.5625 41.182 53.6309 41.5693 53.7676C41.9613 53.9043 42.2985 54.1025 42.5811 54.3623C42.7998 54.5537 42.9958 54.8021 43.1689 55.1074V53.7129L44.126 53.7197ZM40.3867 54.499C39.8398 54.499 39.3385 54.6289 38.8828 54.8887C38.4271 55.1439 38.0693 55.4925 37.8096 55.9346C37.5498 56.3766 37.4199 56.8597 37.4199 57.3838C37.4199 57.8942 37.5521 58.3682 37.8164 58.8057C38.0807 59.2386 38.4362 59.585 38.8828 59.8447C39.334 60.0999 39.8216 60.2275 40.3457 60.2275C40.847 60.2275 41.3141 60.0999 41.7471 59.8447C42.1846 59.585 42.5309 59.2386 42.7861 58.8057C43.0413 58.3682 43.1689 57.8942 43.1689 57.3838C43.1689 56.8734 43.0436 56.3949 42.793 55.9482C42.5423 55.5016 42.2028 55.1484 41.7744 54.8887C41.346 54.6289 40.8835 54.499 40.3867 54.499ZM48.877 57.1035C49.278 57.1992 49.5856 57.3451 49.7998 57.541C50.1826 57.8919 50.374 58.3499 50.374 58.915C50.374 59.1748 50.3239 59.4391 50.2236 59.708C50.1234 59.9723 49.9867 60.1979 49.8135 60.3848C49.6813 60.526 49.5173 60.6605 49.3213 60.7881C49.1071 60.9157 48.9043 61.0046 48.7129 61.0547C48.5215 61.1003 48.2663 61.123 47.9473 61.123C47.4642 61.123 47.0381 61.0365 46.6689 60.8633C46.3044 60.6901 46.0195 60.4395 45.8145 60.1113C45.6094 59.7832 45.5 59.3981 45.4863 58.9561H46.4639C46.4958 59.2067 46.5368 59.3936 46.5869 59.5166C46.637 59.6351 46.7236 59.7536 46.8467 59.8721C47.1292 60.1455 47.487 60.2822 47.9199 60.2822C48.3483 60.2822 48.6969 60.1569 48.9658 59.9062C49.2393 59.6556 49.376 59.3343 49.376 58.9424C49.376 58.6917 49.3076 58.4616 49.1709 58.252C49.0342 58.0423 48.8496 57.8783 48.6172 57.7598C48.3848 57.6413 48.125 57.582 47.8379 57.582C47.6602 57.582 47.512 57.5911 47.3936 57.6094V56.7412C47.5804 56.7594 47.6966 56.7686 47.7422 56.7686C48.0931 56.7686 48.3893 56.6592 48.6309 56.4404C48.877 56.2171 49 55.9437 49 55.6201C49 55.2692 48.8906 54.9889 48.6719 54.7793C48.4531 54.5651 48.1615 54.458 47.7969 54.458C47.4688 54.458 47.2044 54.5537 47.0039 54.7451C46.8034 54.932 46.6849 55.2008 46.6484 55.5518H45.6709C45.7119 54.932 45.9261 54.4512 46.3135 54.1094C46.7008 53.763 47.2227 53.5898 47.8789 53.5898C48.2708 53.5898 48.6263 53.6742 48.9453 53.8428C49.2689 54.0114 49.5218 54.2461 49.7041 54.5469C49.8864 54.8431 49.9775 55.1735 49.9775 55.5381C49.9775 55.8662 49.9137 56.151 49.7861 56.3926C49.7087 56.5339 49.6038 56.6569 49.4717 56.7617C49.3395 56.862 49.1413 56.9759 48.877 57.1035ZM51.7822 53.7129H52.7051V54.9775C52.9147 54.6813 53.097 54.4762 53.252 54.3623C53.931 53.8291 54.7194 53.5625 55.6172 53.5625C56.1732 53.5625 56.7087 53.6833 57.2236 53.9248C57.7386 54.1755 58.1921 54.5264 58.584 54.9775C59.1628 55.6247 59.4521 56.4268 59.4521 57.3838C59.4521 58.0765 59.2767 58.7122 58.9258 59.291C58.5794 59.8652 58.1055 60.321 57.5039 60.6582C56.9069 60.9954 56.2552 61.1641 55.5488 61.1641C54.6328 61.1641 53.8763 60.8883 53.2793 60.3369C53.1061 60.1865 52.9329 59.9541 52.7598 59.6396V63.5498H51.7822V53.7129ZM55.5488 60.2275C55.9772 60.2093 56.3691 60.1296 56.7246 59.9883C57.0801 59.8424 57.39 59.6419 57.6543 59.3867C57.9186 59.1315 58.1214 58.8353 58.2627 58.498C58.404 58.1562 58.4746 57.7848 58.4746 57.3838C58.4746 56.8688 58.3447 56.388 58.085 55.9414C57.8298 55.4948 57.4811 55.1439 57.0391 54.8887C56.5924 54.6289 56.1094 54.499 55.5898 54.499C55.0475 54.499 54.5553 54.6243 54.1133 54.875C53.6712 55.1257 53.3226 55.4697 53.0674 55.9072C52.8167 56.3447 52.6914 56.8324 52.6914 57.3701C52.6914 57.8942 52.8167 58.375 53.0674 58.8125C53.318 59.2454 53.6576 59.5895 54.0859 59.8447C54.5143 60.0999 54.9837 60.2275 55.4941 60.2275H55.5488ZM68.2705 53.7197V60.9932H67.3135V59.626C67.1357 59.9313 66.9352 60.1888 66.7119 60.3984C66.1149 60.9089 65.3789 61.1641 64.5039 61.1641C63.9206 61.1641 63.3281 61.0205 62.7266 60.7334C62.125 60.4417 61.6488 60.0726 61.2979 59.626C61.0791 59.3389 60.9036 58.9925 60.7715 58.5869C60.6439 58.1768 60.5801 57.7666 60.5801 57.3564C60.5801 56.6729 60.7533 56.0394 61.0996 55.4561C61.4505 54.8727 61.9268 54.4124 62.5283 54.0752C63.1253 53.7334 63.7747 53.5625 64.4766 53.5625C64.9141 53.5625 65.3265 53.6309 65.7139 53.7676C66.1058 53.9043 66.443 54.1025 66.7256 54.3623C66.9443 54.5537 67.1403 54.8021 67.3135 55.1074V53.7129L68.2705 53.7197ZM64.5312 54.499C63.9844 54.499 63.4831 54.6289 63.0273 54.8887C62.5716 55.1439 62.2139 55.4925 61.9541 55.9346C61.6943 56.3766 61.5645 56.8597 61.5645 57.3838C61.5645 57.8942 61.6966 58.3682 61.9609 58.8057C62.2253 59.2386 62.5807 59.585 63.0273 59.8447C63.4785 60.0999 63.9661 60.2275 64.4902 60.2275C64.9915 60.2275 65.4587 60.0999 65.8916 59.8447C66.3291 59.585 66.6755 59.2386 66.9307 58.8057C67.1859 58.3682 67.3135 57.8942 67.3135 57.3838C67.3135 56.8734 67.1882 56.3949 66.9375 55.9482C66.6868 55.5016 66.3473 55.1484 65.9189 54.8887C65.4906 54.6289 65.028 54.499 64.5312 54.499ZM73.4385 61.1709C73.0967 61.1572 72.821 61.1299 72.6113 61.0889C72.2969 61.0296 71.9596 60.8952 71.5996 60.6855C71.2396 60.4714 70.9388 60.2253 70.6973 59.9473C70.4831 59.6966 70.3145 59.43 70.1914 59.1475C70.0684 58.8604 69.9772 58.5231 69.918 58.1357C69.8633 57.7438 69.8359 57.2607 69.8359 56.6865C69.8359 55.9619 69.8656 55.3786 69.9248 54.9365C69.9795 54.4899 70.0775 54.0752 70.2188 53.6924C70.556 52.749 71.2373 52.1315 72.2627 51.8398C72.7275 51.7031 73.6094 51.5208 74.9082 51.293C75.2591 51.2337 75.5348 51.1517 75.7354 51.0469V52.0654C75.6898 52.0928 75.6488 52.111 75.6123 52.1201C75.266 52.2523 74.6758 52.3844 73.8418 52.5166C73.1536 52.626 72.6068 52.7695 72.2012 52.9473C71.7956 53.1204 71.4766 53.3506 71.2441 53.6377C71.0892 53.82 70.9661 54.0342 70.875 54.2803C70.7656 54.6266 70.6927 54.9115 70.6562 55.1348C70.6243 55.3581 70.5765 55.848 70.5127 56.6045C70.6403 56.1761 70.7633 55.8594 70.8818 55.6543C71.0003 55.4447 71.1712 55.2327 71.3945 55.0186C72.0007 54.458 72.7298 54.1777 73.582 54.1777C74.2155 54.1777 74.7943 54.3281 75.3184 54.6289C75.8424 54.9251 76.2549 55.3353 76.5557 55.8594C76.8564 56.3789 77.0068 56.9531 77.0068 57.582C77.0068 58.5436 76.7038 59.3548 76.0977 60.0156C75.7467 60.3984 75.332 60.6878 74.8535 60.8838C74.653 60.9795 74.4593 61.0456 74.2725 61.082C74.0856 61.1185 73.8076 61.1481 73.4385 61.1709ZM70.8613 57.6367C70.8613 58.1152 70.973 58.5527 71.1963 58.9492C71.4242 59.3411 71.734 59.651 72.126 59.8789C72.5179 60.1022 72.9508 60.2139 73.4248 60.2139C73.8805 60.2139 74.2998 60.0999 74.6826 59.8721C75.07 59.6442 75.3753 59.332 75.5986 58.9355C75.8265 58.5436 75.9404 58.1198 75.9404 57.6641C75.9404 57.1992 75.8288 56.7754 75.6055 56.3926C75.3822 56.0052 75.0723 55.6999 74.6758 55.4766C74.2839 55.2578 73.8532 55.1484 73.3838 55.1484C72.8962 55.1484 72.4609 55.2555 72.0781 55.4697C71.6953 55.6794 71.3968 55.9756 71.1826 56.3584C70.9684 56.7367 70.8613 57.1628 70.8613 57.6367ZM81.9561 53.5625C82.6488 53.5625 83.2891 53.7334 83.877 54.0752C84.4694 54.417 84.9388 54.8796 85.2852 55.4629C85.6315 56.0417 85.8047 56.6683 85.8047 57.3428C85.8047 58.0264 85.6338 58.6621 85.292 59.25C84.9502 59.8379 84.4899 60.305 83.9111 60.6514C83.3324 60.9932 82.7035 61.1641 82.0244 61.1641C81.3499 61.1641 80.7188 60.9932 80.1309 60.6514C79.543 60.3187 79.0758 59.863 78.7295 59.2842C78.3877 58.7008 78.2168 58.0719 78.2168 57.3975C78.2168 56.7184 78.3877 56.085 78.7295 55.4971C79.0667 54.9046 79.5225 54.4352 80.0967 54.0889C80.6709 53.738 81.2907 53.5625 81.9561 53.5625ZM82.0244 54.499C81.4912 54.5173 81.0104 54.6562 80.582 54.916C80.1491 55.1712 79.8096 55.5176 79.5635 55.9551C79.3219 56.3926 79.2012 56.8734 79.2012 57.3975C79.2012 57.9124 79.3265 58.3864 79.5771 58.8193C79.8324 59.2568 80.1764 59.6009 80.6094 59.8516C81.0469 60.1022 81.5231 60.2275 82.0381 60.2275C82.5531 60.2275 83.0247 60.0999 83.4531 59.8447C83.877 59.585 84.2096 59.2318 84.4512 58.7852C84.6973 58.3385 84.8203 57.8441 84.8203 57.3018C84.8203 56.8096 84.695 56.347 84.4443 55.9141C84.1982 55.4811 83.8633 55.137 83.4395 54.8818C83.0156 54.6266 82.5622 54.499 82.0791 54.499H82.0244ZM88.2656 61V54.6152H86.5498V53.7334H90.959V54.6152H89.25V61H88.2656ZM99.3877 53.7197V60.9932H98.4307V59.626C98.2529 59.9313 98.0524 60.1888 97.8291 60.3984C97.2321 60.9089 96.4961 61.1641 95.6211 61.1641C95.0378 61.1641 94.4453 61.0205 93.8438 60.7334C93.2422 60.4417 92.766 60.0726 92.415 59.626C92.1963 59.3389 92.0208 58.9925 91.8887 58.5869C91.7611 58.1768 91.6973 57.7666 91.6973 57.3564C91.6973 56.6729 91.8704 56.0394 92.2168 55.4561C92.5677 54.8727 93.0439 54.4124 93.6455 54.0752C94.2425 53.7334 94.8919 53.5625 95.5938 53.5625C96.0312 53.5625 96.4437 53.6309 96.8311 53.7676C97.223 53.9043 97.5602 54.1025 97.8428 54.3623C98.0615 54.5537 98.2575 54.8021 98.4307 55.1074V53.7129L99.3877 53.7197ZM95.6484 54.499C95.1016 54.499 94.6003 54.6289 94.1445 54.8887C93.6888 55.1439 93.3311 55.4925 93.0713 55.9346C92.8115 56.3766 92.6816 56.8597 92.6816 57.3838C92.6816 57.8942 92.8138 58.3682 93.0781 58.8057C93.3424 59.2386 93.6979 59.585 94.1445 59.8447C94.5957 60.0999 95.0833 60.2275 95.6074 60.2275C96.1087 60.2275 96.5758 60.0999 97.0088 59.8447C97.4463 59.585 97.7926 59.2386 98.0479 58.8057C98.3031 58.3682 98.4307 57.8942 98.4307 57.3838C98.4307 56.8734 98.3053 56.3949 98.0547 55.9482C97.804 55.5016 97.4645 55.1484 97.0361 54.8887C96.6077 54.6289 96.1452 54.499 95.6484 54.499ZM102.047 56.8232H106.244V53.7197H107.242V61H106.244V57.7051H102.047V61H101.069V53.7197H102.047V56.8232ZM112.376 53.5625C113.069 53.5625 113.709 53.7334 114.297 54.0752C114.889 54.417 115.359 54.8796 115.705 55.4629C116.051 56.0417 116.225 56.6683 116.225 57.3428C116.225 58.0264 116.054 58.6621 115.712 59.25C115.37 59.8379 114.91 60.305 114.331 60.6514C113.752 60.9932 113.123 61.1641 112.444 61.1641C111.77 61.1641 111.139 60.9932 110.551 60.6514C109.963 60.3187 109.496 59.863 109.149 59.2842C108.808 58.7008 108.637 58.0719 108.637 57.3975C108.637 56.7184 108.808 56.085 109.149 55.4971C109.487 54.9046 109.942 54.4352 110.517 54.0889C111.091 53.738 111.711 53.5625 112.376 53.5625ZM112.444 54.499C111.911 54.5173 111.43 54.6562 111.002 54.916C110.569 55.1712 110.229 55.5176 109.983 55.9551C109.742 56.3926 109.621 56.8734 109.621 57.3975C109.621 57.9124 109.746 58.3864 109.997 58.8193C110.252 59.2568 110.596 59.6009 111.029 59.8516C111.467 60.1022 111.943 60.2275 112.458 60.2275C112.973 60.2275 113.445 60.0999 113.873 59.8447C114.297 59.585 114.63 59.2318 114.871 58.7852C115.117 58.3385 115.24 57.8441 115.24 57.3018C115.24 56.8096 115.115 56.347 114.864 55.9141C114.618 55.4811 114.283 55.137 113.859 54.8818C113.436 54.6266 112.982 54.499 112.499 54.499H112.444Z" fill="#929292"/>
</svg>
