<svg width="172" height="44" viewBox="0 0 172 44" fill="none" xmlns="http://www.w3.org/2000/svg">
<rect width="26.8654" height="26.8654" rx="3" transform="matrix(0.70723 -0.706983 0.70723 0.706983 134 18.9934)" fill="white"/>
<ellipse cx="153.043" cy="18.996" rx="10.8814" ry="10.8781" fill="#1C202A"/>
<rect x="146.241" y="12.1953" width="13.6984" height="13.6933" rx="3" fill="white"/>
<ellipse cx="153.024" cy="18.9751" rx="4.74178" ry="4.73978" fill="#1C202A"/>
<rect width="3.0739" height="3.0739" rx="1" transform="matrix(0.707197 -0.707016 0.707197 0.707016 151.002 18.9934)" fill="white"/>
<path d="M3.96 36.0088H1.746V23.4088C2.01 23.4088 2.688 23.4028 3.78 23.3908C4.884 23.3788 5.484 23.3728 5.58 23.3728C8.628 23.3728 10.152 24.6688 10.152 27.2608C10.152 28.2328 9.906 29.0248 9.414 29.6368C8.922 30.2368 8.358 30.6448 7.722 30.8608L11.664 36.0088H8.982L5.508 31.2928H3.96V36.0088ZM5.472 25.4428C5.256 25.4428 4.752 25.4548 3.96 25.4788V29.2228H5.4C6.084 29.2228 6.654 29.0548 7.11 28.7188C7.578 28.3708 7.812 27.8908 7.812 27.2788C7.812 26.0548 7.032 25.4428 5.472 25.4428ZM18.6154 33.7408L19.2094 35.1988C18.4174 35.8708 17.3854 36.2068 16.1134 36.2068C14.8054 36.2068 13.7494 35.8168 12.9454 35.0368C12.1534 34.2568 11.7574 33.2308 11.7574 31.9588C11.7574 30.7468 12.1474 29.7388 12.9274 28.9348C13.7074 28.1188 14.7454 27.7108 16.0414 27.7108C17.1094 27.7108 18.0154 28.0648 18.7594 28.7728C19.5034 29.4688 19.8754 30.3688 19.8754 31.4728C19.8754 31.9288 19.8334 32.3008 19.7494 32.5888H13.8994C13.9834 33.1888 14.2474 33.6568 14.6914 33.9928C15.1354 34.3168 15.6814 34.4788 16.3294 34.4788C17.2414 34.4788 18.0034 34.2328 18.6154 33.7408ZM15.9514 29.4388C14.7754 29.4388 14.0674 30.0268 13.8274 31.2028H17.8054C17.8174 30.6988 17.6554 30.2788 17.3194 29.9428C16.9834 29.6068 16.5274 29.4388 15.9514 29.4388ZM27.1959 39.6088V35.5948C26.5599 36.0028 25.8939 36.2068 25.1979 36.2068C23.9139 36.2068 22.8879 35.8228 22.1199 35.0548C21.3639 34.2748 20.9859 33.2428 20.9859 31.9588C20.9859 30.7588 21.4239 29.7508 22.2999 28.9348C23.1759 28.1188 24.2859 27.7108 25.6299 27.7108C27.0219 27.7108 28.2339 28.0348 29.2659 28.6828V39.6088H27.1959ZM25.4679 34.2808C26.1639 34.2808 26.7399 34.0348 27.1959 33.5428V30.0508C26.6439 29.7868 26.1159 29.6548 25.6119 29.6548C24.8559 29.6548 24.2619 29.8888 23.8299 30.3568C23.4099 30.8128 23.1999 31.3768 23.1999 32.0488C23.1999 32.6968 23.4039 33.2308 23.8119 33.6508C24.2319 34.0708 24.7839 34.2808 25.4679 34.2808ZM38.8706 27.9088V36.0088H36.8006V35.0188C36.1526 35.8108 35.2886 36.2068 34.2086 36.2068C33.3686 36.2068 32.6846 35.9248 32.1566 35.3608C31.6286 34.7968 31.3646 33.9628 31.3646 32.8588V27.9088H33.4346V32.4268C33.4346 33.6628 33.9506 34.2808 34.9826 34.2808C35.6906 34.2808 36.2966 33.9508 36.8006 33.2908V27.9088H38.8706ZM47.5314 33.7408L48.1254 35.1988C47.3334 35.8708 46.3014 36.2068 45.0294 36.2068C43.7214 36.2068 42.6654 35.8168 41.8614 35.0368C41.0694 34.2568 40.6734 33.2308 40.6734 31.9588C40.6734 30.7468 41.0634 29.7388 41.8434 28.9348C42.6234 28.1188 43.6614 27.7108 44.9574 27.7108C46.0254 27.7108 46.9314 28.0648 47.6754 28.7728C48.4194 29.4688 48.7914 30.3688 48.7914 31.4728C48.7914 31.9288 48.7494 32.3008 48.6654 32.5888H42.8154C42.8994 33.1888 43.1634 33.6568 43.6074 33.9928C44.0514 34.3168 44.5974 34.4788 45.2454 34.4788C46.1574 34.4788 46.9194 34.2328 47.5314 33.7408ZM44.8674 29.4388C43.6914 29.4388 42.9834 30.0268 42.7434 31.2028H46.7214C46.7334 30.6988 46.5714 30.2788 46.2354 29.9428C45.8994 29.6068 45.4434 29.4388 44.8674 29.4388ZM54.2566 34.2808C54.4606 34.1488 54.5626 33.9628 54.5626 33.7228C54.5626 33.4828 54.4126 33.2908 54.1126 33.1468C53.8126 32.9908 53.4466 32.8588 53.0146 32.7508C52.5946 32.6308 52.1686 32.4928 51.7366 32.3368C51.3046 32.1688 50.9386 31.9048 50.6386 31.5448C50.3386 31.1848 50.1886 30.7288 50.1886 30.1768C50.1886 29.4088 50.4646 28.8088 51.0166 28.3768C51.5806 27.9328 52.2946 27.7108 53.1586 27.7108C54.4786 27.7108 55.5046 28.0528 56.2366 28.7368L55.4626 30.2128C54.8026 29.6968 54.0706 29.4388 53.2666 29.4388C52.9666 29.4388 52.7206 29.5108 52.5286 29.6548C52.3486 29.7868 52.2586 29.9488 52.2586 30.1408C52.2586 30.3808 52.4086 30.5788 52.7086 30.7348C53.0086 30.8908 53.3686 31.0228 53.7886 31.1308C54.2206 31.2388 54.6526 31.3708 55.0846 31.5268C55.5166 31.6828 55.8826 31.9408 56.1826 32.3008C56.4826 32.6488 56.6326 33.0868 56.6326 33.6148C56.6326 34.4068 56.3326 35.0368 55.7326 35.5048C55.1446 35.9728 54.3526 36.2068 53.3566 36.2068C52.6606 36.2068 51.9706 36.0568 51.2866 35.7568C50.6146 35.4568 50.1766 35.1448 49.9726 34.8208L50.9806 33.4708C51.2206 33.7348 51.5986 33.9688 52.1146 34.1728C52.6306 34.3768 53.0926 34.4788 53.5006 34.4788C53.8126 34.4788 54.0646 34.4128 54.2566 34.2808ZM58.2767 32.9308V25.6588H60.3467V27.9088H62.9567V29.8528H60.3467V32.8048C60.3467 33.7768 60.6707 34.2628 61.3187 34.2628C61.7267 34.2628 62.1407 34.1068 62.5607 33.7948L63.1907 35.3968C62.5427 35.9248 61.7447 36.1888 60.7967 36.1888C59.9087 36.1888 59.2667 35.9188 58.8707 35.3788C58.4747 34.8268 58.2767 34.0108 58.2767 32.9308ZM69.4964 36.0088V24.1088H69.6834C69.9554 24.1088 70.4087 24.1031 71.0434 24.0918C71.678 24.0691 72.1767 24.0578 72.5394 24.0578C73.6954 24.0578 74.7097 24.2165 75.5824 24.5338C76.455 24.8398 77.152 25.2705 77.6734 25.8258C78.1947 26.3698 78.58 26.9875 78.8294 27.6788C79.09 28.3588 79.2204 29.0955 79.2204 29.8888C79.2204 31.6795 78.6254 33.1528 77.4354 34.3088C76.2567 35.4648 74.5794 36.0428 72.4034 36.0428C72.12 36.0428 71.6724 36.0371 71.0604 36.0258C70.4484 36.0145 69.978 36.0088 69.6494 36.0088H69.4964ZM72.5054 24.9418C72.2447 24.9418 72.001 24.9475 71.7744 24.9588C71.5477 24.9588 71.304 24.9645 71.0434 24.9758C70.794 24.9871 70.59 24.9928 70.4314 24.9928V35.1248C71.7234 35.1475 72.392 35.1588 72.4374 35.1588C74.2847 35.1588 75.7127 34.6715 76.7214 33.6968C77.73 32.7108 78.2344 31.4415 78.2344 29.8888C78.2344 28.4268 77.7527 27.2368 76.7894 26.3188C75.826 25.4008 74.398 24.9418 72.5054 24.9418ZM87.4555 34.3938L87.7445 35.0738C87.0532 35.7991 86.1125 36.1618 84.9225 36.1618C83.7099 36.1618 82.7295 35.7991 81.9815 35.0738C81.2335 34.3485 80.8595 33.3851 80.8595 32.1838C80.8595 31.0278 81.1995 30.0758 81.8795 29.3278C82.5709 28.5798 83.5229 28.2058 84.7355 28.2058C85.7329 28.2058 86.5602 28.5231 87.2175 29.1578C87.8749 29.7925 88.2035 30.6255 88.2035 31.6568C88.2035 31.9288 88.1865 32.1668 88.1525 32.3708H81.8455C81.8795 33.2888 82.1799 34.0141 82.7465 34.5468C83.3132 35.0681 84.0555 35.3288 84.9735 35.3288C86.0275 35.3288 86.8549 35.0171 87.4555 34.3938ZM84.6505 29.0388C83.8232 29.0388 83.1602 29.2825 82.6615 29.7698C82.1629 30.2458 81.8739 30.8691 81.7945 31.6398H87.3025C87.2912 30.8351 87.0475 30.2005 86.5715 29.7358C86.0955 29.2711 85.4552 29.0388 84.6505 29.0388ZM94.2796 34.0028C94.2796 33.6515 94.1323 33.3681 93.8376 33.1528C93.5543 32.9375 93.2029 32.7675 92.7836 32.6428C92.3756 32.5181 91.9619 32.3821 91.5426 32.2348C91.1233 32.0761 90.7663 31.8325 90.4716 31.5038C90.1883 31.1751 90.0466 30.7501 90.0466 30.2288C90.0466 29.6168 90.2733 29.1295 90.7266 28.7668C91.1799 28.3928 91.7749 28.2058 92.5116 28.2058C93.5656 28.2058 94.3646 28.4891 94.9086 29.0558L94.5346 29.7188C94.0133 29.2315 93.3446 28.9878 92.5286 28.9878C92.0639 28.9878 91.6899 29.1068 91.4066 29.3448C91.1233 29.5828 90.9816 29.8718 90.9816 30.2118C90.9816 30.5858 91.1233 30.8861 91.4066 31.1128C91.7013 31.3395 92.0526 31.5208 92.4606 31.6568C92.8799 31.7815 93.2993 31.9175 93.7186 32.0648C94.1379 32.2121 94.4893 32.4445 94.7726 32.7618C95.0673 33.0678 95.2146 33.4701 95.2146 33.9688C95.2146 34.6828 94.9483 35.2268 94.4156 35.6008C93.8943 35.9748 93.2426 36.1618 92.4606 36.1618C91.9393 36.1618 91.4179 36.0485 90.8966 35.8218C90.3753 35.5951 90.0239 35.3401 89.8426 35.0568L90.3356 34.4788C90.5396 34.7395 90.8626 34.9548 91.3046 35.1248C91.7466 35.2948 92.1659 35.3798 92.5626 35.3798C93.0386 35.3798 93.4409 35.2608 93.7696 35.0228C94.1096 34.7848 94.2796 34.4448 94.2796 34.0028ZM97.8491 36.0088V28.3588H98.7331V36.0088H97.8491ZM97.6961 25.3838C97.6961 25.2138 97.7584 25.0778 97.8831 24.9758C98.0077 24.8738 98.1551 24.8228 98.3251 24.8228C98.4724 24.8228 98.6027 24.8795 98.7161 24.9928C98.8407 25.0948 98.9031 25.2251 98.9031 25.3838C98.9031 25.5765 98.8464 25.7295 98.7331 25.8428C98.6197 25.9561 98.4837 26.0128 98.3251 26.0128C98.1437 26.0128 97.9907 25.9561 97.8661 25.8428C97.7527 25.7295 97.6961 25.5765 97.6961 25.3838ZM100.752 37.1308C100.752 36.5415 100.956 36.0541 101.364 35.6688C101.783 35.2721 102.361 34.9945 103.098 34.8358C102.928 34.6318 102.843 34.3881 102.843 34.1048C102.843 33.8101 102.939 33.5551 103.132 33.3398C102.633 33.1245 102.242 32.8015 101.959 32.3708C101.675 31.9401 101.534 31.4528 101.534 30.9088C101.534 30.1268 101.811 29.4808 102.367 28.9708C102.922 28.4608 103.653 28.2058 104.56 28.2058C105.285 28.2058 105.925 28.3985 106.481 28.7838H106.498L108.674 28.2058V29.0388L107.127 29.4298C107.433 29.8831 107.586 30.3761 107.586 30.9088C107.586 31.6795 107.302 32.3255 106.736 32.8468C106.18 33.3568 105.455 33.6118 104.56 33.6118C104.265 33.6118 104.01 33.5891 103.795 33.5438C103.693 33.6911 103.642 33.8781 103.642 34.1048C103.642 34.3541 103.715 34.5581 103.863 34.7168C104.18 34.6941 104.418 34.6828 104.577 34.6828C105.733 34.6828 106.656 34.8981 107.348 35.3288C108.05 35.7481 108.402 36.3488 108.402 37.1308C108.402 37.9015 108.05 38.4965 107.348 38.9158C106.645 39.3351 105.721 39.5448 104.577 39.5448C103.421 39.5448 102.491 39.3351 101.789 38.9158C101.097 38.5078 100.752 37.9128 100.752 37.1308ZM101.653 37.1308C101.653 37.6295 101.913 38.0205 102.435 38.3038C102.967 38.5985 103.681 38.7458 104.577 38.7458C105.472 38.7458 106.18 38.5985 106.702 38.3038C107.234 38.0205 107.501 37.6295 107.501 37.1308C107.501 36.6321 107.234 36.2355 106.702 35.9408C106.18 35.6348 105.472 35.4818 104.577 35.4818C103.693 35.4818 102.984 35.6291 102.452 35.9238C101.919 36.2185 101.653 36.6208 101.653 37.1308ZM103.03 29.5488C102.633 29.9115 102.435 30.3648 102.435 30.9088C102.435 31.4528 102.633 31.9061 103.03 32.2688C103.426 32.6315 103.936 32.8128 104.56 32.8128C105.183 32.8128 105.693 32.6315 106.09 32.2688C106.486 31.9061 106.685 31.4528 106.685 30.9088C106.685 30.3648 106.481 29.9115 106.073 29.5488C105.676 29.1861 105.172 29.0048 104.56 29.0048C103.948 29.0048 103.438 29.1861 103.03 29.5488ZM110.191 36.0088V28.3588H111.075V29.4298C111.381 29.0898 111.783 28.8065 112.282 28.5798C112.792 28.3418 113.307 28.2228 113.829 28.2228C114.883 28.2228 115.676 28.5005 116.209 29.0558C116.753 29.5998 117.025 30.4611 117.025 31.6398V36.0088H116.141V31.8098C116.141 29.9738 115.302 29.0558 113.625 29.0558C113.126 29.0558 112.644 29.1691 112.18 29.3958C111.715 29.6225 111.347 29.9001 111.075 30.2288V36.0088H110.191Z" fill="white"/>
<path d="M31.0049 14.0352V4.20508H33.5889C34.2542 4.20508 34.7806 4.24382 35.168 4.32129C35.5599 4.40332 35.9108 4.54232 36.2207 4.73828C36.4896 4.9069 36.722 5.11654 36.918 5.36719C37.1139 5.61328 37.262 5.88672 37.3623 6.1875C37.4671 6.48828 37.5195 6.80729 37.5195 7.14453C37.5195 7.61849 37.4238 8.05143 37.2324 8.44336C37.041 8.83529 36.763 9.16341 36.3984 9.42773C36.1888 9.58268 35.9632 9.70801 35.7217 9.80371C35.4801 9.89486 35.2067 9.96094 34.9014 10.002C34.6006 10.0475 34.2451 10.0703 33.835 10.0703H31.9893V14.0352H31.0049ZM31.9893 9.1748H33.6846C34.1859 9.1748 34.5846 9.14746 34.8809 9.09277C35.1816 9.03353 35.446 8.93099 35.6738 8.78516C35.9473 8.61198 36.1569 8.38184 36.3027 8.09473C36.4486 7.80306 36.5215 7.48177 36.5215 7.13086C36.5215 6.71615 36.4144 6.34928 36.2002 6.03027C35.9906 5.71126 35.6921 5.47201 35.3047 5.3125C34.9492 5.16211 34.4411 5.08691 33.7803 5.08691H33.5889L33.418 5.10059H33.2607H31.9893V9.1748ZM46.126 6.75488V14.0283H45.1689V12.6611C44.9912 12.9665 44.7907 13.224 44.5674 13.4336C43.9704 13.944 43.2344 14.1992 42.3594 14.1992C41.776 14.1992 41.1836 14.0557 40.582 13.7686C39.9805 13.4769 39.5042 13.1077 39.1533 12.6611C38.9346 12.374 38.7591 12.0277 38.627 11.6221C38.4993 11.2119 38.4355 10.8018 38.4355 10.3916C38.4355 9.70801 38.6087 9.07454 38.9551 8.49121C39.306 7.90788 39.7822 7.44759 40.3838 7.11035C40.9808 6.76855 41.6302 6.59766 42.332 6.59766C42.7695 6.59766 43.182 6.66602 43.5693 6.80273C43.9613 6.93945 44.2985 7.1377 44.5811 7.39746C44.7998 7.58887 44.9958 7.83724 45.1689 8.14258V6.74805L46.126 6.75488ZM42.3867 7.53418C41.8398 7.53418 41.3385 7.66406 40.8828 7.92383C40.4271 8.17904 40.0693 8.52767 39.8096 8.96973C39.5498 9.41178 39.4199 9.89486 39.4199 10.4189C39.4199 10.9294 39.5521 11.4033 39.8164 11.8408C40.0807 12.2738 40.4362 12.6201 40.8828 12.8799C41.334 13.1351 41.8216 13.2627 42.3457 13.2627C42.847 13.2627 43.3141 13.1351 43.7471 12.8799C44.1846 12.6201 44.5309 12.2738 44.7861 11.8408C45.0413 11.4033 45.1689 10.9294 45.1689 10.4189C45.1689 9.90853 45.0436 9.43001 44.793 8.9834C44.5423 8.53678 44.2028 8.18359 43.7744 7.92383C43.346 7.66406 42.8835 7.53418 42.3867 7.53418ZM50.877 10.1387C51.278 10.2344 51.5856 10.3802 51.7998 10.5762C52.1826 10.9271 52.374 11.3851 52.374 11.9502C52.374 12.21 52.3239 12.4743 52.2236 12.7432C52.1234 13.0075 51.9867 13.2331 51.8135 13.4199C51.6813 13.5612 51.5173 13.6956 51.3213 13.8232C51.1071 13.9508 50.9043 14.0397 50.7129 14.0898C50.5215 14.1354 50.2663 14.1582 49.9473 14.1582C49.4642 14.1582 49.0381 14.0716 48.6689 13.8984C48.3044 13.7253 48.0195 13.4746 47.8145 13.1465C47.6094 12.8184 47.5 12.4333 47.4863 11.9912H48.4639C48.4958 12.2419 48.5368 12.4287 48.5869 12.5518C48.637 12.6702 48.7236 12.7887 48.8467 12.9072C49.1292 13.1807 49.487 13.3174 49.9199 13.3174C50.3483 13.3174 50.6969 13.1921 50.9658 12.9414C51.2393 12.6908 51.376 12.3695 51.376 11.9775C51.376 11.7269 51.3076 11.4967 51.1709 11.2871C51.0342 11.0775 50.8496 10.9134 50.6172 10.7949C50.3848 10.6764 50.125 10.6172 49.8379 10.6172C49.6602 10.6172 49.512 10.6263 49.3936 10.6445V9.77637C49.5804 9.7946 49.6966 9.80371 49.7422 9.80371C50.0931 9.80371 50.3893 9.69434 50.6309 9.47559C50.877 9.25228 51 8.97884 51 8.65527C51 8.30436 50.8906 8.02409 50.6719 7.81445C50.4531 7.60026 50.1615 7.49316 49.7969 7.49316C49.4688 7.49316 49.2044 7.58887 49.0039 7.78027C48.8034 7.96712 48.6849 8.236 48.6484 8.58691H47.6709C47.7119 7.96712 47.9261 7.48633 48.3135 7.14453C48.7008 6.79818 49.2227 6.625 49.8789 6.625C50.2708 6.625 50.6263 6.70931 50.9453 6.87793C51.2689 7.04655 51.5218 7.28125 51.7041 7.58203C51.8864 7.87826 51.9775 8.20866 51.9775 8.57324C51.9775 8.90137 51.9137 9.1862 51.7861 9.42773C51.7087 9.56901 51.6038 9.69206 51.4717 9.79688C51.3395 9.89714 51.1413 10.0111 50.877 10.1387ZM53.7822 6.74805H54.7051V8.0127C54.9147 7.71647 55.097 7.51139 55.252 7.39746C55.931 6.86426 56.7194 6.59766 57.6172 6.59766C58.1732 6.59766 58.7087 6.71842 59.2236 6.95996C59.7386 7.21061 60.1921 7.56152 60.584 8.0127C61.1628 8.65983 61.4521 9.46191 61.4521 10.4189C61.4521 11.1117 61.2767 11.7474 60.9258 12.3262C60.5794 12.9004 60.1055 13.3561 59.5039 13.6934C58.9069 14.0306 58.2552 14.1992 57.5488 14.1992C56.6328 14.1992 55.8763 13.9235 55.2793 13.3721C55.1061 13.2217 54.9329 12.9893 54.7598 12.6748V16.585H53.7822V6.74805ZM57.5488 13.2627C57.9772 13.2445 58.3691 13.1647 58.7246 13.0234C59.0801 12.8776 59.39 12.6771 59.6543 12.4219C59.9186 12.1667 60.1214 11.8704 60.2627 11.5332C60.404 11.1914 60.4746 10.82 60.4746 10.4189C60.4746 9.90397 60.3447 9.42318 60.085 8.97656C59.8298 8.52995 59.4811 8.17904 59.0391 7.92383C58.5924 7.66406 58.1094 7.53418 57.5898 7.53418C57.0475 7.53418 56.5553 7.65951 56.1133 7.91016C55.6712 8.16081 55.3226 8.50488 55.0674 8.94238C54.8167 9.37988 54.6914 9.86751 54.6914 10.4053C54.6914 10.9294 54.8167 11.4102 55.0674 11.8477C55.318 12.2806 55.6576 12.6247 56.0859 12.8799C56.5143 13.1351 56.9837 13.2627 57.4941 13.2627H57.5488ZM70.2705 6.75488V14.0283H69.3135V12.6611C69.1357 12.9665 68.9352 13.224 68.7119 13.4336C68.1149 13.944 67.3789 14.1992 66.5039 14.1992C65.9206 14.1992 65.3281 14.0557 64.7266 13.7686C64.125 13.4769 63.6488 13.1077 63.2979 12.6611C63.0791 12.374 62.9036 12.0277 62.7715 11.6221C62.6439 11.2119 62.5801 10.8018 62.5801 10.3916C62.5801 9.70801 62.7533 9.07454 63.0996 8.49121C63.4505 7.90788 63.9268 7.44759 64.5283 7.11035C65.1253 6.76855 65.7747 6.59766 66.4766 6.59766C66.9141 6.59766 67.3265 6.66602 67.7139 6.80273C68.1058 6.93945 68.443 7.1377 68.7256 7.39746C68.9443 7.58887 69.1403 7.83724 69.3135 8.14258V6.74805L70.2705 6.75488ZM66.5312 7.53418C65.9844 7.53418 65.4831 7.66406 65.0273 7.92383C64.5716 8.17904 64.2139 8.52767 63.9541 8.96973C63.6943 9.41178 63.5645 9.89486 63.5645 10.4189C63.5645 10.9294 63.6966 11.4033 63.9609 11.8408C64.2253 12.2738 64.5807 12.6201 65.0273 12.8799C65.4785 13.1351 65.9661 13.2627 66.4902 13.2627C66.9915 13.2627 67.4587 13.1351 67.8916 12.8799C68.3291 12.6201 68.6755 12.2738 68.9307 11.8408C69.1859 11.4033 69.3135 10.9294 69.3135 10.4189C69.3135 9.90853 69.1882 9.43001 68.9375 8.9834C68.6868 8.53678 68.3473 8.18359 67.9189 7.92383C67.4906 7.66406 67.028 7.53418 66.5312 7.53418ZM75.4385 14.2061C75.0967 14.1924 74.821 14.165 74.6113 14.124C74.2969 14.0648 73.9596 13.9303 73.5996 13.7207C73.2396 13.5065 72.9388 13.2604 72.6973 12.9824C72.4831 12.7318 72.3145 12.4652 72.1914 12.1826C72.0684 11.8955 71.9772 11.5583 71.918 11.1709C71.8633 10.779 71.8359 10.2959 71.8359 9.72168C71.8359 8.99707 71.8656 8.41374 71.9248 7.97168C71.9795 7.52507 72.0775 7.11035 72.2188 6.72754C72.556 5.78418 73.2373 5.16667 74.2627 4.875C74.7275 4.73828 75.6094 4.55599 76.9082 4.32812C77.2591 4.26888 77.5348 4.18685 77.7354 4.08203V5.10059C77.6898 5.12793 77.6488 5.14616 77.6123 5.15527C77.266 5.28743 76.6758 5.4196 75.8418 5.55176C75.1536 5.66113 74.6068 5.80469 74.2012 5.98242C73.7956 6.1556 73.4766 6.38574 73.2441 6.67285C73.0892 6.85514 72.9661 7.06934 72.875 7.31543C72.7656 7.66178 72.6927 7.94661 72.6562 8.16992C72.6243 8.39323 72.5765 8.88314 72.5127 9.63965C72.6403 9.21126 72.7633 8.89453 72.8818 8.68945C73.0003 8.47982 73.1712 8.2679 73.3945 8.05371C74.0007 7.49316 74.7298 7.21289 75.582 7.21289C76.2155 7.21289 76.7943 7.36328 77.3184 7.66406C77.8424 7.96029 78.2549 8.37044 78.5557 8.89453C78.8564 9.41406 79.0068 9.98828 79.0068 10.6172C79.0068 11.5788 78.7038 12.39 78.0977 13.0508C77.7467 13.4336 77.332 13.723 76.8535 13.9189C76.653 14.0146 76.4593 14.0807 76.2725 14.1172C76.0856 14.1536 75.8076 14.1833 75.4385 14.2061ZM72.8613 10.6719C72.8613 11.1504 72.973 11.5879 73.1963 11.9844C73.4242 12.3763 73.734 12.6862 74.126 12.9141C74.5179 13.1374 74.9508 13.249 75.4248 13.249C75.8805 13.249 76.2998 13.1351 76.6826 12.9072C77.07 12.6794 77.3753 12.3672 77.5986 11.9707C77.8265 11.5788 77.9404 11.1549 77.9404 10.6992C77.9404 10.2344 77.8288 9.81055 77.6055 9.42773C77.3822 9.04036 77.0723 8.73503 76.6758 8.51172C76.2839 8.29297 75.8532 8.18359 75.3838 8.18359C74.8962 8.18359 74.4609 8.29069 74.0781 8.50488C73.6953 8.71452 73.3968 9.01074 73.1826 9.39355C72.9684 9.77181 72.8613 10.1979 72.8613 10.6719ZM83.9561 6.59766C84.6488 6.59766 85.2891 6.76855 85.877 7.11035C86.4694 7.45215 86.9388 7.91471 87.2852 8.49805C87.6315 9.07682 87.8047 9.70345 87.8047 10.3779C87.8047 11.0615 87.6338 11.6973 87.292 12.2852C86.9502 12.873 86.4899 13.3402 85.9111 13.6865C85.3324 14.0283 84.7035 14.1992 84.0244 14.1992C83.3499 14.1992 82.7188 14.0283 82.1309 13.6865C81.543 13.3538 81.0758 12.8981 80.7295 12.3193C80.3877 11.736 80.2168 11.1071 80.2168 10.4326C80.2168 9.75358 80.3877 9.12012 80.7295 8.53223C81.0667 7.93978 81.5225 7.47038 82.0967 7.12402C82.6709 6.77311 83.2907 6.59766 83.9561 6.59766ZM84.0244 7.53418C83.4912 7.55241 83.0104 7.69141 82.582 7.95117C82.1491 8.20638 81.8096 8.55273 81.5635 8.99023C81.3219 9.42773 81.2012 9.90853 81.2012 10.4326C81.2012 10.9476 81.3265 11.4215 81.5771 11.8545C81.8324 12.292 82.1764 12.6361 82.6094 12.8867C83.0469 13.1374 83.5231 13.2627 84.0381 13.2627C84.5531 13.2627 85.0247 13.1351 85.4531 12.8799C85.877 12.6201 86.2096 12.2669 86.4512 11.8203C86.6973 11.3737 86.8203 10.8792 86.8203 10.3369C86.8203 9.84473 86.695 9.38216 86.4443 8.94922C86.1982 8.51628 85.8633 8.1722 85.4395 7.91699C85.0156 7.66178 84.5622 7.53418 84.0791 7.53418H84.0244ZM90.2656 14.0352V7.65039H88.5498V6.76855H92.959V7.65039H91.25V14.0352H90.2656ZM101.388 6.75488V14.0283H100.431V12.6611C100.253 12.9665 100.052 13.224 99.8291 13.4336C99.2321 13.944 98.4961 14.1992 97.6211 14.1992C97.0378 14.1992 96.4453 14.0557 95.8438 13.7686C95.2422 13.4769 94.766 13.1077 94.415 12.6611C94.1963 12.374 94.0208 12.0277 93.8887 11.6221C93.7611 11.2119 93.6973 10.8018 93.6973 10.3916C93.6973 9.70801 93.8704 9.07454 94.2168 8.49121C94.5677 7.90788 95.0439 7.44759 95.6455 7.11035C96.2425 6.76855 96.8919 6.59766 97.5938 6.59766C98.0312 6.59766 98.4437 6.66602 98.8311 6.80273C99.223 6.93945 99.5602 7.1377 99.8428 7.39746C100.062 7.58887 100.257 7.83724 100.431 8.14258V6.74805L101.388 6.75488ZM97.6484 7.53418C97.1016 7.53418 96.6003 7.66406 96.1445 7.92383C95.6888 8.17904 95.3311 8.52767 95.0713 8.96973C94.8115 9.41178 94.6816 9.89486 94.6816 10.4189C94.6816 10.9294 94.8138 11.4033 95.0781 11.8408C95.3424 12.2738 95.6979 12.6201 96.1445 12.8799C96.5957 13.1351 97.0833 13.2627 97.6074 13.2627C98.1087 13.2627 98.5758 13.1351 99.0088 12.8799C99.4463 12.6201 99.7926 12.2738 100.048 11.8408C100.303 11.4033 100.431 10.9294 100.431 10.4189C100.431 9.90853 100.305 9.43001 100.055 8.9834C99.804 8.53678 99.4645 8.18359 99.0361 7.92383C98.6077 7.66406 98.1452 7.53418 97.6484 7.53418ZM104.047 9.8584H108.244V6.75488H109.242V14.0352H108.244V10.7402H104.047V14.0352H103.069V6.75488H104.047V9.8584ZM114.376 6.59766C115.069 6.59766 115.709 6.76855 116.297 7.11035C116.889 7.45215 117.359 7.91471 117.705 8.49805C118.051 9.07682 118.225 9.70345 118.225 10.3779C118.225 11.0615 118.054 11.6973 117.712 12.2852C117.37 12.873 116.91 13.3402 116.331 13.6865C115.752 14.0283 115.123 14.1992 114.444 14.1992C113.77 14.1992 113.139 14.0283 112.551 13.6865C111.963 13.3538 111.496 12.8981 111.149 12.3193C110.808 11.736 110.637 11.1071 110.637 10.4326C110.637 9.75358 110.808 9.12012 111.149 8.53223C111.487 7.93978 111.942 7.47038 112.517 7.12402C113.091 6.77311 113.711 6.59766 114.376 6.59766ZM114.444 7.53418C113.911 7.55241 113.43 7.69141 113.002 7.95117C112.569 8.20638 112.229 8.55273 111.983 8.99023C111.742 9.42773 111.621 9.90853 111.621 10.4326C111.621 10.9476 111.746 11.4215 111.997 11.8545C112.252 12.292 112.596 12.6361 113.029 12.8867C113.467 13.1374 113.943 13.2627 114.458 13.2627C114.973 13.2627 115.445 13.1351 115.873 12.8799C116.297 12.6201 116.63 12.2669 116.871 11.8203C117.117 11.3737 117.24 10.8792 117.24 10.3369C117.24 9.84473 117.115 9.38216 116.864 8.94922C116.618 8.51628 116.283 8.1722 115.859 7.91699C115.436 7.66178 114.982 7.53418 114.499 7.53418H114.444Z" fill="#929292"/>
</svg>
