<svg width="32" height="32" viewBox="0 0 32 32" fill="none" xmlns="http://www.w3.org/2000/svg">
<path d="M16 0C24.8368 0 32 7.1632 32 16C32 24.8368 24.8368 32 16 32C13.1725 32.0045 10.3947 31.2563 7.95202 29.832L0.0064225 32L2.16962 24.0512C0.744171 21.6078 -0.0047014 18.8288 2.22084e-05 16C2.22084e-05 7.1632 7.16322 0 16 0ZM10.5472 8.47999L10.2272 8.49279C10.0201 8.50541 9.81758 8.55984 9.63202 8.65279C9.45845 8.75108 9.30001 8.87395 9.16162 9.01759C8.96962 9.19839 8.86082 9.35519 8.74402 9.50719C8.15221 10.2766 7.83357 11.2213 7.83842 12.192C7.84162 12.976 8.04642 13.7392 8.36642 14.4528C9.02082 15.896 10.0976 17.424 11.5184 18.84C11.8608 19.1808 12.1968 19.5232 12.5584 19.8416C14.3238 21.3959 16.4276 22.5168 18.7024 23.1152L19.6112 23.2544C19.9072 23.2704 20.2032 23.248 20.5008 23.2336C20.9668 23.2095 21.4218 23.0834 21.8336 22.864C22.0431 22.7561 22.2476 22.6386 22.4464 22.512C22.4464 22.512 22.5152 22.4672 22.6464 22.368C22.8624 22.208 22.9952 22.0944 23.1744 21.9072C23.3072 21.7696 23.4224 21.608 23.5104 21.424C23.6352 21.1632 23.76 20.6656 23.8112 20.2512C23.8496 19.9344 23.8384 19.7616 23.8336 19.6544C23.8272 19.4832 23.6848 19.3056 23.5296 19.2304L22.5984 18.8128C22.5984 18.8128 21.2064 18.2064 20.3552 17.8192C20.2661 17.7803 20.1707 17.7581 20.0736 17.7536C19.9641 17.7423 19.8535 17.7547 19.7492 17.7897C19.6449 17.8248 19.5493 17.8817 19.4688 17.9568C19.4608 17.9536 19.3536 18.0448 18.1968 19.4464C18.1304 19.5356 18.039 19.603 17.9341 19.6401C17.8292 19.6771 17.7157 19.6821 17.608 19.6544C17.5038 19.6264 17.4017 19.5912 17.3024 19.5488C17.104 19.4656 17.0352 19.4336 16.8992 19.376C15.9809 18.9753 15.1307 18.4338 14.3792 17.7712C14.1776 17.5952 13.9904 17.4032 13.7984 17.2176C13.169 16.6148 12.6204 15.9328 12.1664 15.1888L12.072 15.0368C12.0042 14.9347 11.9494 14.8245 11.9088 14.7088C11.848 14.4736 12.0064 14.2848 12.0064 14.2848C12.0064 14.2848 12.3952 13.8592 12.576 13.6288C12.752 13.4048 12.9008 13.1872 12.9968 13.032C13.1856 12.728 13.2448 12.416 13.1456 12.1744C12.6976 11.08 12.2336 9.99039 11.7568 8.90879C11.6624 8.69439 11.3824 8.54079 11.128 8.51039C11.0416 8.50079 10.9552 8.49119 10.8688 8.48479C10.6539 8.47412 10.4386 8.47626 10.224 8.49119L10.5456 8.47839L10.5472 8.47999Z" fill="white"/>
</svg>
