<svg width="40" height="54" viewBox="0 0 40 54" fill="none" xmlns="http://www.w3.org/2000/svg">
<path d="M18.6446 0.0475197C12.2087 0.516457 6.4139 4.17326 3.00669 9.92224C2.00862 11.6041 1.22565 13.4708 0.730918 15.3511C-0.581202 20.3425 -0.116583 25.6226 2.04304 30.2082C2.86473 31.9532 3.64339 33.1842 4.95121 34.8074C5.09748 34.9923 8.19064 39.2082 11.8173 44.1726C15.7665 49.5789 18.5069 53.2898 18.6489 53.4251C19.4491 54.1916 20.5504 54.1916 21.3506 53.4251C21.4925 53.2898 24.2329 49.5789 28.1822 44.1726C31.8088 39.2082 34.902 34.9923 35.0482 34.8074C36.356 33.1842 37.1347 31.9532 37.9564 30.2082C40.3914 25.0364 40.6624 18.9267 38.705 13.5475C37.1863 9.38567 34.5449 5.93177 30.9699 3.43829C27.4207 0.962849 22.9509 -0.263599 18.6446 0.0475197ZM21.0494 10.2108C22.0131 10.3416 22.7616 10.576 23.6349 11.0224C26.014 12.2308 27.6401 14.4312 28.2037 17.2178C28.3112 17.7408 28.3199 17.8716 28.3242 18.8681C28.3242 20.072 28.2811 20.4237 28.023 21.3706C27.3304 23.9001 25.502 26.0239 23.1617 27.0204C22.297 27.3901 21.5915 27.5615 20.6149 27.6471C19.3501 27.7599 18.0638 27.5434 16.8377 27.0204C14.4974 26.0239 12.6691 23.9001 11.9764 21.3706C11.7183 20.4237 11.6753 20.072 11.6753 18.8681C11.6796 17.8716 11.6882 17.7408 11.7957 17.2178C12.2776 14.8416 13.5424 12.8666 15.4181 11.5725C16.1795 11.0495 17.298 10.549 18.1585 10.3506C19.0576 10.1432 20.1675 10.0891 21.0494 10.2108Z" fill="white"/>
</svg>
