<svg width="50" height="51" viewBox="0 0 50 51" fill="none" xmlns="http://www.w3.org/2000/svg">
<path d="M6.25016 28.6249L4.68766 25.4999H15.6252L14.3752 22.3749H4.16683L2.60433 19.2499H18.8543L17.6043 16.1249H2.31266L0.520996 12.9999H8.3335C8.3335 11.8948 8.77248 10.835 9.55388 10.0536C10.3353 9.27224 11.3951 8.83325 12.5002 8.83325H37.5002V17.1666H43.7502L50.0002 25.4999V35.9166H45.8335C45.8335 37.5742 45.175 39.1639 44.0029 40.336C42.8308 41.5081 41.2411 42.1666 39.5835 42.1666C37.9259 42.1666 36.3362 41.5081 35.1641 40.336C33.992 39.1639 33.3335 37.5742 33.3335 35.9166H25.0002C25.0002 37.5742 24.3417 39.1639 23.1696 40.336C21.9975 41.5081 20.4078 42.1666 18.7502 42.1666C17.0926 42.1666 15.5028 41.5081 14.3307 40.336C13.1586 39.1639 12.5002 37.5742 12.5002 35.9166H8.3335V28.6249H6.25016ZM39.5835 39.0416C40.4123 39.0416 41.2071 38.7123 41.7932 38.1263C42.3793 37.5402 42.7085 36.7454 42.7085 35.9166C42.7085 35.0878 42.3793 34.2929 41.7932 33.7069C41.2071 33.1208 40.4123 32.7916 39.5835 32.7916C38.7547 32.7916 37.9598 33.1208 37.3738 33.7069C36.7877 34.2929 36.4585 35.0878 36.4585 35.9166C36.4585 36.7454 36.7877 37.5402 37.3738 38.1263C37.9598 38.7123 38.7547 39.0416 39.5835 39.0416ZM42.7085 20.2916H37.5002V25.4999H46.7918L42.7085 20.2916ZM18.7502 39.0416C19.579 39.0416 20.3738 38.7123 20.9599 38.1263C21.5459 37.5402 21.8752 36.7454 21.8752 35.9166C21.8752 35.0878 21.5459 34.2929 20.9599 33.7069C20.3738 33.1208 19.579 32.7916 18.7502 32.7916C17.9214 32.7916 17.1265 33.1208 16.5405 33.7069C15.9544 34.2929 15.6252 35.0878 15.6252 35.9166C15.6252 36.7454 15.9544 37.5402 16.5405 38.1263C17.1265 38.7123 17.9214 39.0416 18.7502 39.0416Z" fill="white"/>
</svg>
