<svg width="288" height="61" viewBox="0 0 288 61" fill="none" xmlns="http://www.w3.org/2000/svg">
<path d="M13.3293 34.0407C13.4437 32.8826 13.6154 31.7245 13.8633 30.5284V30.4905C13.8252 30.4905 13.787 30.4905 13.768 30.5095C12.0133 30.6804 9.24785 30.8892 7.18808 31.155C3.60254 31.6296 0.341172 32.1042 0.0741595 32.427C-0.669656 33.3004 4.25094 33.9458 11.7271 34.0408L13.3293 34.0407Z" fill="url(#paint0_linear_786_9202)"/>
<path d="M50.9961 0.019179C39.1901 0.019179 27.5372 6.66399 20.3468 16.4037C20.3468 16.4037 3.60154 17.5998 2.72387 19.0806C0.0919471 24.1117 0.015625 32.5598 0.015625 32.5598V32.5407C0.0346941 32.5028 0.0537707 32.4648 0.0728398 32.4268C0.339852 32.1041 3.60123 31.6294 7.18676 31.1548C9.22751 30.889 12.012 30.6802 13.7666 30.5093C13.8048 30.5093 13.8239 30.5093 13.862 30.4903C19.679 29.9207 30.7794 29.1234 37.111 28.9525C52.655 28.5348 66.0625 28.6487 75.3696 29.0664C78.0779 12.8908 67.4358 0.019043 50.9952 0.019043L50.9961 0.019179Z" fill="url(#paint1_linear_786_9202)"/>
<path d="M75.3972 29.066C66.109 28.6484 52.7015 28.5155 37.1386 28.9521C30.7876 29.123 19.6876 29.9204 13.8707 30.4899C13.7562 31.1354 13.5464 32.1986 13.3748 33.5846V33.6605C13.3176 34.1351 13.2794 34.6098 13.2413 35.0844V35.1793C13.2222 35.635 13.2031 36.0906 13.2031 36.5463C13.2031 36.831 13.2031 37.1158 13.2222 37.4006C13.2222 37.6474 13.2222 37.8752 13.2413 38.1031C13.2603 38.5967 13.2985 39.1093 13.3366 39.6029C13.3557 39.7358 13.3748 39.8877 13.3938 40.0206C13.432 40.4003 13.4892 40.78 13.5464 41.1597C13.5655 41.3116 13.6036 41.4634 13.6227 41.6153C13.6799 41.976 13.7562 42.3368 13.8325 42.6975C13.8706 42.8494 13.8897 42.9823 13.9279 43.1152C14.0232 43.4759 14.1186 43.8556 14.2139 44.2163C14.233 44.2733 14.2521 44.3302 14.2712 44.4062C20.1263 43.8366 27.3163 43.286 35.8034 42.9443C35.8988 42.9443 39.5225 42.8114 39.5606 42.8114C47.4187 42.5646 65.1174 42.6975 69.9044 42.7545C70.6673 42.7545 71.1441 42.7735 71.1441 42.7735C75.1683 42.8304 76.8085 42.8684 80.9856 43.0962C82.9119 43.1912 86.116 43.3241 86.2877 43.7417V43.7607C86.2877 43.7798 86.2877 43.7798 86.2686 43.7987C88.9196 38.9195 88.9577 30.8507 88.9577 30.8507C89.1103 30.1482 84.0562 29.4647 75.3972 29.066Z" fill="url(#paint2_linear_786_9202)"/>
<path d="M70.8895 15.5871H74.3988C71.1374 6.28463 62.4783 0 51.0164 0C39.2104 0 27.5575 6.66382 20.3672 16.3846C25.5358 15.9099 32.2876 15.5112 38.905 15.3973C40.2019 15.3783 42.6813 14.8468 44.0735 12.7964C46.6673 8.96129 49.223 5.08806 52.8464 3.79718C52.9036 3.77817 52.9799 3.74022 53.0371 3.72125C58.568 1.65185 65.8539 6.75858 70.8895 15.5871Z" fill="url(#paint3_linear_786_9202)"/>
<path d="M69.8989 42.7739C65.1118 42.7359 47.4321 42.584 39.5551 42.8309C39.517 42.8309 35.9124 42.9638 35.7979 42.9638C27.3108 43.3055 20.1205 43.837 14.2656 44.4256C17.2409 54.2599 26.1095 60.9995 37.9724 60.9995C50.5029 60.9995 62.8804 53.5004 69.8994 42.7733L69.8989 42.7739Z" fill="#E4002B"/>
<path d="M69.8957 42.7736C62.8581 53.5005 50.4992 60.9998 37.9686 60.9998C32.3232 60.9998 27.3647 59.481 23.3781 56.8231C18.9915 53.8993 15.8064 49.5897 14.2422 44.4258C20.0974 43.8563 27.2874 43.3057 35.7745 42.964C35.8889 42.964 39.5126 42.8311 39.5317 42.8311C47.4276 42.5843 65.1264 42.7172 69.8944 42.7741L69.8957 42.7736Z" fill="url(#paint4_linear_786_9202)"/>
<path d="M69.8935 42.7741C68.711 42.7551 66.7275 42.7551 64.2863 42.7361C58.6409 42.6982 50.4211 42.6792 44.5654 42.7361C43.2685 43.7803 41.8 45.3371 41.1134 46.742C36.5551 54.4118 34.9721 61.93 20.8779 50.4631C20.8779 50.4631 18.6273 50.2543 17.1016 50.5391C18.6464 52.8932 20.6299 54.9057 22.9567 56.5384C23.1284 56.6523 23.281 56.7472 23.3954 56.8232C23.6624 56.994 23.9103 57.1649 24.1773 57.3358C28.0109 59.6709 32.6834 60.9999 37.9668 60.9999C50.4973 60.9999 62.8745 53.5011 69.8935 42.7741Z" fill="url(#paint5_linear_786_9202)"/>
<path d="M86.2979 43.7421C86.1262 43.3245 82.9221 43.2106 80.9958 43.0966C76.7999 42.8688 75.1597 42.8308 71.1543 42.7739C71.1543 42.7739 70.6775 42.7739 69.9146 42.7549C69.2089 43.8181 68.4651 44.8432 67.6641 45.8495C78.7258 45.5268 85.9932 44.7484 86.2979 43.7421Z" fill="url(#paint6_linear_786_9202)"/>
<path d="M230.403 36.8497C228.972 29.161 236.067 20.6364 244.993 18.1874C255.387 16.0991 264.142 20.0859 265.724 28.0218C266.831 35.7866 260.823 43.9121 250.753 46.2479C241.235 48.0136 232.062 44.6145 230.403 36.8497ZM243.791 27.5087C240.301 31.4576 239.405 36.6218 241.789 39.0134C244.173 41.4056 248.922 40.1525 252.393 36.2036C255.863 32.2547 256.779 27.0905 254.395 24.6989C252.03 22.3067 247.281 23.5598 243.791 27.5087ZM195.424 26.0089C195.367 24.9647 194.852 24.1862 193.917 23.6927C192.983 23.1991 191.61 22.9332 189.836 22.9332H188.024L186.308 30.9637H187.757C190.275 30.9637 192.201 30.546 193.555 29.6917C194.89 28.8184 195.52 27.6036 195.424 26.0089ZM175.609 45.5636C175.609 45.5636 172.9 45.6776 173.263 43.1145L177.993 21.0534C178.26 19.7814 179.518 18.7562 180.796 18.7562H192.22C194.318 18.7562 196.149 18.8891 197.713 19.1359C199.296 19.3637 200.669 19.7624 201.832 20.3319C202.996 20.9015 203.892 21.6419 204.541 22.5722C205.189 23.4835 205.552 24.8505 205.647 26.2174C205.838 29.3119 204.426 31.818 201.394 33.6975C198.361 35.596 194.013 36.3175 188.33 36.3175H185.183L183.18 45.5633L175.609 45.5636ZM131.437 25.9138C131.361 24.8316 130.903 24.0723 130.045 23.6356C129.187 23.1799 127.966 22.9521 126.345 22.9521H123.77L122.226 30.1665H124.781C126.994 30.1665 128.672 29.8058 129.835 29.0464C130.98 28.2869 131.514 27.2428 131.437 25.9138ZM118.926 45.5636H111.24C110.706 45.5446 108.703 45.3548 109.027 43.1145L113.757 21.0534C114.024 19.7814 115.283 18.7562 116.561 18.7562H129.568C131.456 18.7562 133.097 18.8701 134.508 19.0789C135.938 19.2878 137.178 19.6675 138.227 20.1991C139.276 20.7307 139.963 21.2243 140.668 22.2685C141.393 23.3317 141.565 24.1291 141.66 25.42C141.889 28.4956 140.554 30.584 137.807 32.3306C135.271 33.6596 131.762 33.8684 130.922 33.8874C130.922 33.8874 130.064 34.0773 131.056 34.3241C131.056 34.3241 132.277 34.6278 133.287 35.5201C135.443 37.2288 137.026 38.9944 141.908 45.5446H130.369C130.369 45.5446 128.386 41.5767 124.266 35.6725C123.351 34.3626 121.863 34.5714 121.31 34.5144L118.926 45.5636ZM278.671 40.3997H287.997L287.368 43.3804C287.12 44.5954 285.842 45.5827 284.602 45.5827H269.936C269.402 45.5636 267.399 45.3738 267.724 43.1335L272.453 21.0725C272.72 19.8004 273.979 18.7753 275.257 18.7753H283.363L278.671 40.3997ZM157.89 29.749H170.134L169.524 32.5588C169.276 33.7929 167.998 34.856 166.72 34.856H156.803L155.601 40.3997H167.846L167.216 43.3804C166.968 44.5954 165.69 45.5827 164.451 45.5827H146.847C146.313 45.5636 144.311 45.3738 144.635 43.1335L149.365 21.0725C149.632 19.8004 150.891 18.7753 152.169 18.7753H172.5L171.889 21.6421C171.622 22.9141 170.363 23.9393 169.086 23.9393H159.149L157.89 29.749ZM232.92 18.7754L232.31 21.6422C231.948 22.9712 230.956 23.9014 229.506 23.9395H228.858C223.041 23.9585 222.679 25.5342 221.553 30.907L220.161 37.286C218.464 45.4115 211.102 45.5639 210.473 45.5639H195.73L196.359 42.6972C196.741 41.2923 197.79 40.4949 199.163 40.4H202.71C208.527 40.381 208.89 38.8052 210.015 33.4324L211.407 27.0534C213.162 18.9468 222.03 18.7755 223.384 18.7755L232.92 18.7754Z" fill="#041E42"/>
<defs>
<linearGradient id="paint0_linear_786_9202" x1="6.86006" y1="31.0562" x2="7.56158" y2="35.0537" gradientUnits="userSpaceOnUse">
<stop stop-color="#D85B13"/>
<stop offset="0.269" stop-color="#E57B0C"/>
<stop offset="0.5447" stop-color="#EF9407"/>
<stop offset="0.7964" stop-color="#F5A304"/>
<stop offset="1" stop-color="#F7A803"/>
</linearGradient>
<linearGradient id="paint1_linear_786_9202" x1="18.2643" y1="3.59808" x2="59.4332" y2="44.9534" gradientUnits="userSpaceOnUse">
<stop stop-color="#FDCC54"/>
<stop offset="0.0154" stop-color="#FCC94D"/>
<stop offset="0.1364" stop-color="#F7B01C"/>
<stop offset="0.1963" stop-color="#F5A709"/>
<stop offset="0.4906" stop-color="#F5A509"/>
<stop offset="0.6479" stop-color="#F39D09"/>
<stop offset="0.7728" stop-color="#F28F0A"/>
<stop offset="0.8806" stop-color="#EF7C0A"/>
<stop offset="0.9766" stop-color="#EB630B"/>
<stop offset="1" stop-color="#EA5C0B"/>
</linearGradient>
<linearGradient id="paint2_linear_786_9202" x1="16.0337" y1="24.6254" x2="84.3282" y2="49.5959" gradientUnits="userSpaceOnUse">
<stop stop-color="#A7A5A4"/>
<stop offset="0.0516" stop-color="#C5C4C3"/>
<stop offset="0.1074" stop-color="#DFDEDD"/>
<stop offset="0.1648" stop-color="#F1F0F0"/>
<stop offset="0.2241" stop-color="#FBFBFB"/>
<stop offset="0.2883" stop-color="white"/>
<stop offset="0.5148" stop-color="#FDFDFC"/>
<stop offset="0.6495" stop-color="#F5F4F4"/>
<stop offset="0.7602" stop-color="#E7E6E6"/>
<stop offset="0.8578" stop-color="#D3D2D2"/>
<stop offset="0.9461" stop-color="#BAB9B8"/>
<stop offset="1" stop-color="#A7A5A4"/>
</linearGradient>
<linearGradient id="paint3_linear_786_9202" x1="25.0929" y1="3.45728" x2="72.4915" y2="20.7874" gradientUnits="userSpaceOnUse">
<stop offset="0.0859" stop-color="#FDCC54"/>
<stop offset="1" stop-color="#F1950A" stop-opacity="0.05"/>
</linearGradient>
<linearGradient id="paint4_linear_786_9202" x1="42.091" y1="61.0046" x2="42.091" y2="42.6896" gradientUnits="userSpaceOnUse">
<stop stop-color="#88181E" stop-opacity="0.3"/>
<stop offset="0.4969" stop-color="#B21829" stop-opacity="0"/>
<stop offset="0.6534" stop-color="#AA1827" stop-opacity="0.3111"/>
<stop offset="0.8996" stop-color="#931821" stop-opacity="0.8004"/>
<stop offset="1" stop-color="#88181E"/>
</linearGradient>
<linearGradient id="paint5_linear_786_9202" x1="31.3321" y1="62.82" x2="54.8458" y2="31.4729" gradientUnits="userSpaceOnUse">
<stop offset="0.0123" stop-color="#E20334" stop-opacity="0"/>
<stop offset="0.0489" stop-color="#DA0531" stop-opacity="0.041"/>
<stop offset="0.2059" stop-color="#BB0E28" stop-opacity="0.2166"/>
<stop offset="0.3591" stop-color="#A51421" stop-opacity="0.388"/>
<stop offset="0.5056" stop-color="#98181D" stop-opacity="0.5519"/>
<stop offset="0.638" stop-color="#93191C" stop-opacity="0.7"/>
<stop offset="1" stop-color="#95191D"/>
</linearGradient>
<linearGradient id="paint6_linear_786_9202" x1="76.9844" y1="45.8569" x2="76.9844" y2="42.7699" gradientUnits="userSpaceOnUse">
<stop offset="0.006135" stop-color="#D7D8D8"/>
<stop offset="0.1914" stop-color="#D0D1D1"/>
<stop offset="0.4642" stop-color="#BCBDBD"/>
<stop offset="0.7894" stop-color="#9C9D9D"/>
<stop offset="1" stop-color="#838484"/>
</linearGradient>
</defs>
</svg>
