<svg width="107" height="34" viewBox="0 0 107 34" fill="none" xmlns="http://www.w3.org/2000/svg">
<g clip-path="url(#clip0_550_2246)">
<path d="M34.7842 21.1499C34.7842 14.309 40.3318 8.75928 47.1694 8.75928C54.0107 8.75928 59.5575 14.309 59.5575 21.1499C59.5575 27.9957 54.0103 33.5348 47.1694 33.5348C40.3318 33.5348 34.7842 27.9961 34.7842 21.1499ZM47.1594 26.8362C50.2956 26.8362 52.8347 24.2943 52.8347 21.1552C52.8347 18.0191 50.2956 15.4742 47.1594 15.4742C44.0183 15.4742 41.4838 18.0191 41.4838 21.1552C41.4838 24.2943 44.0183 26.8362 47.1594 26.8362Z" fill="#ED1B2D"/>
<path d="M0 0.897705H10.3569L16.2105 20.5165H16.294L22.2421 0.897705H32.3161V32.8525H25.6554V10.2541H25.5669L19.1787 32.8525H13.0583L6.7542 10.2541H6.66539V32.8525H0V0.897705ZM89.9888 7.19644H96.6492V0.897705H89.9888V7.19644ZM89.9888 32.8525H96.6492V9.44272H89.9888V32.8525ZM100.34 32.8525H107V0.897705H100.34V32.8525ZM62.351 32.8525H69.0086V30.7789C70.7206 32.6714 72.8802 33.3943 75.4015 33.3943C82.1089 33.3943 87.1979 27.7711 87.1979 21.1945C87.1979 14.6287 82.1528 8.90879 75.4015 8.90879C72.9719 8.90879 70.8597 9.67063 69.0086 11.2514V0.897705H62.351V32.8525ZM69.0899 21.1553C69.0899 18.0191 71.6262 15.4743 74.7652 15.4743C77.9042 15.4743 80.4437 18.0191 80.4437 21.1553C80.4437 24.2943 77.9042 26.8363 74.7652 26.8363C71.6262 26.8363 69.0899 24.2943 69.0899 21.1553Z" fill="#006BB6"/>
</g>
<defs>
<clipPath id="clip0_550_2246">
<rect width="107" height="32.6371" fill="white" transform="translate(0 0.897705)"/>
</clipPath>
</defs>
</svg>
