<svg width="124" height="27" viewBox="0 0 124 27" fill="none" xmlns="http://www.w3.org/2000/svg">
<g id="Repsol_logo 2" clip-path="url(#clip0_550_2235)">
<g id="Group">
<path id="Vector" d="M6.15869 15.0293C6.20759 14.5291 6.28094 14.0289 6.3869 13.5122V13.4958C6.3706 13.4958 6.3543 13.4958 6.34615 13.5041C5.59633 13.5779 4.41456 13.6681 3.53435 13.7829C2.00213 13.9879 0.60844 14.1929 0.494337 14.3323C0.176481 14.7095 2.27921 14.9883 5.474 15.0293L6.15869 15.0293Z" fill="url(#paint0_linear_550_2235)"/>
<path id="Vector_2" d="M22.2553 0.334776C17.2102 0.334776 12.2306 3.20477 9.15792 7.41152C9.15792 7.41152 2.0021 7.92811 1.62705 8.56771C0.502341 10.7407 0.469727 14.3896 0.469727 14.3896V14.3814C0.477875 14.365 0.486027 14.3486 0.494176 14.3322C0.608279 14.1927 2.00197 13.9877 3.53418 13.7827C4.40627 13.6679 5.59617 13.5777 6.34599 13.5039C6.36229 13.5039 6.37044 13.5039 6.38674 13.4957C8.87252 13.2497 13.6161 12.9053 16.3218 12.8315C22.9642 12.6511 28.6937 12.7003 32.6709 12.8807C33.8283 5.89425 29.2806 0.334717 22.2549 0.334717L22.2553 0.334776Z" fill="url(#paint1_linear_550_2235)"/>
<path id="Vector_3" d="M32.6791 12.8808C28.71 12.7004 22.9805 12.643 16.33 12.8316C13.616 12.9054 8.8726 13.2498 6.38682 13.4958C6.33792 13.7746 6.24827 14.2338 6.17492 14.8324V14.8652C6.15047 15.0702 6.13416 15.2752 6.11786 15.4802V15.5212C6.10971 15.718 6.10156 15.9148 6.10156 16.1116C6.10156 16.2346 6.10156 16.3576 6.10971 16.4806C6.10971 16.5872 6.10971 16.6856 6.11786 16.784C6.12601 16.9972 6.14231 17.2186 6.15861 17.4318C6.16676 17.4892 6.17491 17.5548 6.18306 17.6122C6.19936 17.7762 6.22381 17.9402 6.24826 18.1042C6.25641 18.1698 6.27271 18.2354 6.28086 18.301C6.30531 18.4568 6.33791 18.6126 6.37051 18.7684C6.38681 18.834 6.39496 18.8914 6.41126 18.9488C6.45201 19.1046 6.49277 19.2686 6.53352 19.4244C6.54166 19.449 6.54982 19.4736 6.55797 19.5064C9.06007 19.2604 12.1326 19.0226 15.7594 18.875C15.8002 18.875 17.3487 18.8176 17.365 18.8176C20.723 18.711 28.2862 18.7684 30.3319 18.793C30.6579 18.793 30.8616 18.8012 30.8616 18.8012C32.5813 18.8258 33.2822 18.8422 35.0672 18.9406C35.8904 18.9816 37.2596 19.039 37.333 19.2194V19.2277C37.333 19.2359 37.333 19.2359 37.3248 19.244C38.4577 17.1366 38.474 13.6516 38.474 13.6516C38.5392 13.3482 36.3794 13.053 32.6791 12.8808Z" fill="url(#paint2_linear_550_2235)"/>
<path id="Vector_4" d="M30.7553 7.05897H32.255C30.8613 3.04109 27.161 0.32666 22.2629 0.32666C17.2178 0.32666 12.2382 3.20487 9.16553 7.40341C11.3742 7.19841 14.2595 7.02619 17.0873 6.97702C17.6415 6.9688 18.7011 6.73921 19.296 5.85361C20.4044 4.19718 21.4966 2.52427 23.0449 1.96672C23.0694 1.95851 23.102 1.94212 23.1264 1.93393C25.49 1.04012 28.6035 3.2458 30.7553 7.05897Z" fill="url(#paint3_linear_550_2235)"/>
<path id="Vector_5" d="M30.331 18.8014C28.2853 18.785 20.7302 18.7194 17.3641 18.826C17.3478 18.826 15.8075 18.8834 15.7586 18.8834C12.1318 19.031 9.05911 19.2605 6.55713 19.5147C7.82855 23.7624 11.6184 26.6733 16.6878 26.6733C22.0425 26.6733 27.3318 23.4343 30.3313 18.8011L30.331 18.8014Z" fill="#E4002B"/>
<path id="Vector_6" d="M30.3309 18.8013C27.3235 23.4344 22.0421 26.6735 16.6874 26.6735C14.275 26.6735 12.156 26.0175 10.4524 24.8695C8.57787 23.6067 7.2168 21.7453 6.54834 19.5149C9.05045 19.2689 12.123 19.0311 15.7498 18.8835C15.7987 18.8835 17.3472 18.8261 17.3554 18.8261C20.7295 18.7195 28.2928 18.7769 30.3303 18.8015L30.3309 18.8013Z" fill="url(#paint4_linear_550_2235)"/>
<path id="Vector_7" d="M30.3309 18.8014C29.8256 18.7932 28.978 18.7932 27.9348 18.7851C25.5224 18.7687 22.0097 18.7605 19.5074 18.7851C18.9532 19.236 18.3257 19.9085 18.0323 20.5153C16.0844 23.828 15.4079 27.0752 9.38497 22.1225C9.38497 22.1225 8.42324 22.0323 7.77124 22.1553C8.43141 23.1721 9.27903 24.0413 10.2733 24.7465C10.3467 24.7957 10.4119 24.8367 10.4608 24.8695C10.5749 24.9433 10.6809 25.0171 10.7949 25.0909C12.4331 26.0995 14.4299 26.6735 16.6876 26.6735C22.0423 26.6735 27.3315 23.4346 30.3309 18.8014Z" fill="url(#paint5_linear_550_2235)"/>
<path id="Vector_8" d="M37.3398 19.2195C37.2664 19.0391 35.8972 18.9899 35.074 18.9407C33.281 18.8423 32.5801 18.8259 30.8685 18.8013C30.8685 18.8013 30.6647 18.8013 30.3387 18.7931C30.0371 19.2523 29.7193 19.6951 29.377 20.1297C34.104 19.9903 37.2096 19.6541 37.3398 19.2195Z" fill="url(#paint6_linear_550_2235)"/>
<path id="Vector_9" d="M98.9224 16.2427C98.3112 12.9218 101.343 9.23988 105.157 8.18213C109.599 7.28014 113.34 9.00213 114.017 12.4297C114.489 15.7835 111.922 19.293 107.619 20.3019C103.552 21.0645 99.6314 19.5964 98.9224 16.2427ZM104.644 12.2082C103.152 13.9138 102.769 16.1442 103.788 17.1772C104.807 18.2104 106.836 17.6692 108.319 15.9636C109.803 14.258 110.194 12.0275 109.175 10.9945C108.165 9.96134 106.135 10.5026 104.644 12.2082ZM83.975 11.5603C83.9505 11.1093 83.7305 10.7731 83.3311 10.5599C82.9318 10.3467 82.345 10.2319 81.587 10.2319H80.8127L80.0792 13.7004H80.6986C81.7745 13.7004 82.5976 13.52 83.1763 13.151C83.7468 12.7738 84.0157 12.2492 83.975 11.5603ZM75.5071 20.0064C75.5071 20.0064 74.3498 20.0556 74.5047 18.9485L76.5259 9.42002C76.64 8.87061 77.1779 8.4278 77.724 8.4278H82.6058C83.5023 8.4278 84.2848 8.4852 84.9531 8.5918C85.6295 8.6902 86.2163 8.8624 86.7135 9.10839C87.2106 9.35439 87.5937 9.67418 87.8708 10.076C88.1479 10.4696 88.3028 11.06 88.3435 11.6504C88.425 12.987 87.8219 14.0694 86.526 14.8812C85.2301 15.7012 83.3719 16.0128 80.9433 16.0128H79.5985L78.7427 20.0062L75.5071 20.0064ZM56.6314 11.5193C56.5988 11.0519 56.4032 10.7239 56.0364 10.5353C55.6696 10.3385 55.148 10.2401 54.4553 10.2401H53.355L52.6948 13.3561H53.787C54.7324 13.3561 55.4496 13.2003 55.9468 12.8723C56.4358 12.5443 56.664 12.0933 56.6314 11.5193ZM51.2848 20.0064H48.0003C47.7721 19.9982 46.9163 19.9162 47.0549 18.9485L49.0761 9.42002C49.1902 8.87061 49.7281 8.4278 50.2742 8.4278H55.8326C56.6395 8.4278 57.3404 8.477 57.9435 8.5672C58.5548 8.6574 59.0845 8.8214 59.5328 9.05101C59.981 9.28061 60.2745 9.49382 60.576 9.94481C60.8857 10.404 60.9591 10.7484 60.9998 11.306C61.0976 12.6344 60.5271 13.5364 59.3535 14.2908C58.2695 14.8648 56.7699 14.955 56.4113 14.9632C56.4113 14.9632 56.0445 15.0452 56.4684 15.1518C56.4684 15.1518 56.99 15.283 57.4219 15.6684C58.3429 16.4064 59.0194 17.169 61.1057 19.9981H56.175C56.175 19.9981 55.3274 18.2843 53.5669 15.7342C53.1757 15.1684 52.54 15.2586 52.3037 15.234L51.2848 20.0064ZM119.549 17.776H123.534L123.265 19.0634C123.16 19.5882 122.613 20.0146 122.084 20.0146H115.816C115.588 20.0064 114.732 19.9244 114.871 18.9568L116.892 9.42823C117.006 8.87882 117.544 8.43604 118.09 8.43604H121.554L119.549 17.776ZM67.9355 13.1758H73.1678L72.9069 14.3894C72.801 14.9224 72.2549 15.3816 71.7089 15.3816H67.4709L66.9575 17.776H72.1897L71.9208 19.0634C71.8148 19.5882 71.2688 20.0146 70.739 20.0146H63.2166C62.9884 20.0064 62.1326 19.9244 62.2712 18.9568L64.2924 9.42823C64.4065 8.87882 64.9444 8.43604 65.4905 8.43604H74.1786L73.9178 9.67425C73.8037 10.2237 73.2658 10.6665 72.7197 10.6665H68.4736L67.9355 13.1758ZM99.9983 8.43611L99.7375 9.67432C99.5827 10.2483 99.1589 10.6501 98.5395 10.6665H98.2624C95.7766 10.6747 95.6217 11.3553 95.1409 13.6759L94.5459 16.4311C93.8205 19.9407 90.6746 20.0065 90.4057 20.0065H84.1056L84.3746 18.7683C84.5376 18.1615 84.9858 17.8171 85.5726 17.7761H87.0886C89.5743 17.7679 89.7292 17.0873 90.21 14.7667L90.805 12.0115C91.5548 8.51011 95.3445 8.43614 95.9233 8.43614L99.9983 8.43611Z" fill="#041E42"/>
</g>
</g>
<defs>
<linearGradient id="paint0_linear_550_2235" x1="3.39417" y1="13.7402" x2="3.70023" y2="15.4656" gradientUnits="userSpaceOnUse">
<stop stop-color="#D85B13"/>
<stop offset="0.269" stop-color="#E57B0C"/>
<stop offset="0.5447" stop-color="#EF9407"/>
<stop offset="0.7964" stop-color="#F5A304"/>
<stop offset="1" stop-color="#F7A803"/>
</linearGradient>
<linearGradient id="paint1_linear_550_2235" x1="8.26797" y1="1.88056" x2="26.0493" y2="19.5529" gradientUnits="userSpaceOnUse">
<stop stop-color="#FDCC54"/>
<stop offset="0.0154" stop-color="#FCC94D"/>
<stop offset="0.1364" stop-color="#F7B01C"/>
<stop offset="0.1963" stop-color="#F5A709"/>
<stop offset="0.4906" stop-color="#F5A509"/>
<stop offset="0.6479" stop-color="#F39D09"/>
<stop offset="0.7728" stop-color="#F28F0A"/>
<stop offset="0.8806" stop-color="#EF7C0A"/>
<stop offset="0.9766" stop-color="#EB630B"/>
<stop offset="1" stop-color="#EA5C0B"/>
</linearGradient>
<linearGradient id="paint2_linear_550_2235" x1="7.31116" y1="10.9628" x2="36.5684" y2="21.5466" gradientUnits="userSpaceOnUse">
<stop stop-color="#A7A5A4"/>
<stop offset="0.0516" stop-color="#C5C4C3"/>
<stop offset="0.1074" stop-color="#DFDEDD"/>
<stop offset="0.1648" stop-color="#F1F0F0"/>
<stop offset="0.2241" stop-color="#FBFBFB"/>
<stop offset="0.2883" stop-color="white"/>
<stop offset="0.5148" stop-color="#FDFDFC"/>
<stop offset="0.6495" stop-color="#F5F4F4"/>
<stop offset="0.7602" stop-color="#E7E6E6"/>
<stop offset="0.8578" stop-color="#D3D2D2"/>
<stop offset="0.9461" stop-color="#BAB9B8"/>
<stop offset="1" stop-color="#A7A5A4"/>
</linearGradient>
<linearGradient id="paint3_linear_550_2235" x1="11.185" y1="1.81991" x2="31.4905" y2="9.16532" gradientUnits="userSpaceOnUse">
<stop offset="0.0859" stop-color="#FDCC54"/>
<stop offset="1" stop-color="#F1950A" stop-opacity="0.05"/>
</linearGradient>
<linearGradient id="paint4_linear_550_2235" x1="18.449" y1="26.6756" x2="18.449" y2="18.765" gradientUnits="userSpaceOnUse">
<stop stop-color="#88181E" stop-opacity="0.3"/>
<stop offset="0.4969" stop-color="#B21829" stop-opacity="0"/>
<stop offset="0.6534" stop-color="#AA1827" stop-opacity="0.3111"/>
<stop offset="0.8996" stop-color="#931821" stop-opacity="0.8004"/>
<stop offset="1" stop-color="#88181E"/>
</linearGradient>
<linearGradient id="paint5_linear_550_2235" x1="13.8524" y1="27.4596" x2="24.0382" y2="14.0246" gradientUnits="userSpaceOnUse">
<stop offset="0.0123" stop-color="#E20334" stop-opacity="0"/>
<stop offset="0.0489" stop-color="#DA0531" stop-opacity="0.041"/>
<stop offset="0.2059" stop-color="#BB0E28" stop-opacity="0.2166"/>
<stop offset="0.3591" stop-color="#A51421" stop-opacity="0.388"/>
<stop offset="0.5056" stop-color="#98181D" stop-opacity="0.5519"/>
<stop offset="0.638" stop-color="#93191C" stop-opacity="0.7"/>
<stop offset="1" stop-color="#95191D"/>
</linearGradient>
<linearGradient id="paint6_linear_550_2235" x1="33.3598" y1="20.1329" x2="33.3598" y2="18.7996" gradientUnits="userSpaceOnUse">
<stop offset="0.006135" stop-color="#D7D8D8"/>
<stop offset="0.1914" stop-color="#D0D1D1"/>
<stop offset="0.4642" stop-color="#BCBDBD"/>
<stop offset="0.7894" stop-color="#9C9D9D"/>
<stop offset="1" stop-color="#838484"/>
</linearGradient>
<clipPath id="clip0_550_2235">
<rect width="124" height="27" fill="white"/>
</clipPath>
</defs>
</svg>
