<svg width="52" height="61" viewBox="0 0 52 61" fill="none" xmlns="http://www.w3.org/2000/svg">
<g clip-path="url(#clip0_550_2261)">
<path fill-rule="evenodd" clip-rule="evenodd" d="M10.3557 46.8695L9.1971 37.4342C6.12963 35.241 3.76643 33.4359 0.926281 31.3571C-0.414661 21.4183 2.0622 16.0265 5.69763 10.9089C10.2194 5.12866 17.4902 0.810669 26.1927 0.810669C34.8955 0.90181 42.189 5.31131 46.4838 11.0915C50.5052 16.5748 52.6641 23.4744 51.0958 31.6312L43.257 37.4342L42.0977 46.8695H29.6695C28.8969 47.4869 27.852 48.0576 26.1927 48.1035C24.5568 48.0576 23.5342 47.4869 22.6936 46.8695H10.3557Z" fill="#CC2229"/>
<path fill-rule="evenodd" clip-rule="evenodd" d="M26.1931 33.7784C25.5341 24.9822 25.3525 14.1299 24.8072 5.42558C23.8756 5.197 22.5577 5.26572 21.4671 5.44836C20.3765 5.79123 19.5812 6.08816 18.6496 6.61367C20.3538 14.9755 22.3307 25.622 24.0123 33.9155C21.7174 25.8506 18.6496 15.7524 16.3777 7.71025C15.2871 7.93883 14.2192 8.55548 13.4469 9.19528C12.629 9.83507 12.1517 10.315 11.4017 11.4572C14.6962 18.5398 18.6496 27.5642 21.9674 34.6009C18.1269 28.2036 13.4689 19.7734 9.60612 13.4221C8.85652 14.0847 8.2882 14.5646 7.53823 15.8439C6.90193 16.8721 6.58396 18.083 6.44764 19.2483C10.6741 24.4346 15.7181 30.6489 19.9671 35.8117C15.5368 31.5165 10.0831 25.9877 5.69804 21.6925C5.2664 22.5605 4.99375 23.2918 4.85743 24.7309C4.69844 26.1244 4.97109 27.792 5.2664 28.7975L13.8325 35.1947L14.7415 42.3001L24.1712 42.3685C24.8529 43.1681 25.0798 43.5793 26.1934 43.6477C27.261 43.5793 27.875 42.9168 28.1477 42.3685H37.554L38.508 35.2403L47.0065 28.8886C47.3241 27.838 47.5284 26.2155 47.4154 24.822C47.2791 23.3142 47.0065 22.5601 46.6428 21.7605C42.2351 26.0329 36.7588 31.5621 32.3737 35.8569C36.6451 30.7393 41.6441 24.5019 45.9155 19.2703C45.6885 18.1054 45.4159 16.917 44.7339 15.8891C43.9386 14.6095 43.484 14.1299 42.757 13.4445C38.872 19.7731 34.1456 28.2723 30.3055 34.6233C33.7143 27.5638 37.5767 18.5394 40.9172 11.5487C40.1903 10.4289 39.6673 9.85786 38.9403 9.26399C38.077 8.60141 37.0091 7.98476 35.9638 7.7334C33.578 15.7524 30.6472 25.9421 28.3293 33.9383C29.9422 25.6448 31.9648 15.0898 33.578 6.7511C32.7604 6.15688 31.9651 5.85994 30.8965 5.54023C29.6699 5.31165 28.4656 5.26608 27.511 5.42594C26.8751 14.1986 26.8517 25.0282 26.1931 33.7784Z" fill="#F6D330"/>
<path fill-rule="evenodd" clip-rule="evenodd" d="M0.153809 56.9221H4.56187C4.49389 57.9048 4.9712 58.133 5.19853 58.2932C5.44816 58.3844 7.28907 58.4755 8.19766 58.3157C8.56132 58.2473 8.90195 58.1102 8.90195 56.9905C8.90195 56.5109 8.78828 55.9854 8.24299 55.8708C6.31143 55.7113 4.42554 55.9167 2.49434 55.7337C0.562782 55.3 0.267832 54.797 0.153809 53.2664C0.290133 51.1415 1.0401 50.5249 3.19863 50.4562C5.44764 50.3878 7.6982 50.3878 9.94722 50.4562C12.2421 50.4562 12.9464 51.3477 12.9464 53.2895H8.90195C8.90195 52.3296 8.7203 51.9643 8.24299 51.9184C7.25956 51.8501 6.2726 51.8501 5.28917 51.9184C4.92552 51.9184 4.44857 52.1014 4.44857 52.9694C4.44857 53.7915 4.65287 53.9973 5.19853 54.0664C6.85708 54.1344 8.53866 54.1575 10.1745 54.2711C12.901 54.4313 12.992 55.6422 13.0827 56.9214C13.128 58.7497 12.469 59.3887 11.9921 59.6864C11.5378 59.8918 9.33358 60.1435 8.90195 60.1435H4.53957C3.56228 60.1435 2.33536 60.0293 1.26742 59.7092C0.267472 59.4354 0.153809 58.0874 0.153809 56.9221ZM41.5763 60.1891H45.4387V50.5025H41.5763V60.1891ZM48.0288 60.1891H51.8463V50.5025H48.0288V60.1891ZM39.3267 55.117C39.2564 54.814 39.1651 54.5164 39.0534 54.2262C38.3944 53.1524 36.1226 53.1524 33.9187 53.1065C32.2602 53.1065 29.7837 53.1524 29.0564 53.8602C28.7607 54.1803 28.6017 54.6371 28.5111 55.117C28.3974 55.6885 28.4197 56.282 28.4197 56.5565C28.4197 57.0588 28.4654 59.0007 29.397 59.5034C30.2603 60.0748 32.8731 60.1435 33.8727 60.1435C34.9406 60.1435 37.8948 60.0293 38.3268 59.5262C39.0987 59.252 39.2807 58.2929 39.4397 57.5391H35.6453C35.6453 58.2929 35.0543 58.75 33.8727 58.6806C32.8047 58.7497 32.1915 58.4983 32.1915 57.1507L39.4393 57.1731C39.4397 56.5109 39.4631 55.8024 39.3267 55.117ZM35.6453 55.7796H32.1915C32.1915 55.5055 32.2371 55.2765 32.3051 55.117C32.5544 54.5004 33.1911 54.4776 33.8723 54.4317C34.9176 54.4317 35.3722 54.683 35.5543 55.117C35.6453 55.3 35.6679 55.5282 35.6453 55.7796ZM15.3549 60.1891H19.1266V56.0765C19.2176 55.5058 19.354 55.0487 20.7399 55.0487C22.0574 55.0263 22.4211 55.3912 22.4211 56.0765V60.1891H26.1928V56.0765C26.1928 54.7286 26.1705 53.9977 25.3069 53.6099C24.5343 53.1069 23.4207 53.1756 22.3758 53.1756C21.2852 53.1756 20.0582 53.3127 19.1266 53.7698V50.5028H15.3549V60.1891Z" fill="#CC2229"/>
</g>
<defs>
<clipPath id="clip0_550_2261">
<rect width="52" height="61" fill="white"/>
</clipPath>
</defs>
</svg>
