<svg width="375" height="425" viewBox="0 0 375 425" fill="none" xmlns="http://www.w3.org/2000/svg">
<path d="M515.35 93.0787C515.35 93.0787 197.781 116.953 294.016 163.691C376.079 203.547 230.931 234.523 174.091 244.668C159.866 247.207 145.507 248.87 131.117 250.186C32.7352 259.182 7.24648 262.764 -104.711 309.557" stroke="#FEF446" stroke-dasharray="12 12"/>
<path d="M519.453 101.701C519.453 101.701 201.884 125.575 298.119 172.314C380.183 212.17 235.034 243.145 178.195 253.29C163.969 255.829 149.611 257.492 135.221 258.808C36.8383 267.804 11.3496 271.387 -100.607 318.179" stroke="#FEF446" stroke-dasharray="12 12"/>
<path d="M523.549 110.318C523.549 110.318 205.98 134.193 302.215 180.931C384.279 220.787 239.13 251.762 182.291 261.907C168.065 264.446 153.707 266.109 139.317 267.425C40.9344 276.422 15.4457 280.004 -96.5113 326.797" stroke="#FEF446" stroke-dasharray="12 12"/>
</svg>
