<svg width="1016" height="294" viewBox="0 0 1016 294" fill="none" xmlns="http://www.w3.org/2000/svg">
<path d="M1008 190.843C1008 190.843 447.988 -25.657 573.988 131.843C688.593 275.1 371.264 191.836 285.641 167.404C271.746 163.439 258.172 158.833 244.614 153.835C54.7167 83.8313 13.1768 68.6812 -222.98 57.3244" stroke="#FEF446" stroke-width="3" stroke-dasharray="17 17"/>
<path d="M1008 208.843C1008 208.843 447.988 -7.65698 573.988 149.843C688.593 293.1 371.264 209.836 285.641 185.404C271.746 181.439 258.172 176.833 244.614 171.835C54.7167 101.831 13.1768 86.6812 -222.98 75.3244" stroke="#FEF446" stroke-width="3" stroke-dasharray="17 17"/>
<path d="M1008 226.843C1008 226.843 447.988 10.343 573.988 167.843C688.593 311.1 371.264 227.836 285.641 203.404C271.746 199.439 258.172 194.833 244.614 189.835C54.7167 119.831 13.1768 104.681 -222.98 93.3244" stroke="#FEF446" stroke-width="3" stroke-dasharray="17 17"/>
</svg>
